<svg viewBox="0 0 960 540" xmlns="http://www.w3.org/2000/svg">
<g fill="none" stroke="#000" stroke-width="0.5">
<path d="M656.041,233.488 L654.723,236.594 L654.414,237.251 L650.658,244.763 L647.511,250.056 L643.731,255.606 L643.636,255.06"/>
<path d="M607.939,196.261 L617.585,194.643 L619.962,193.916"/>
<path d="M656.307,188.583 L646.328,189.238 L641.211,189.574"/>
<path d="M639.119,189.711 L641.211,189.574"/>
<path d="M598.38,195.298 L596.643,194.902 L595.528,194.552 L592.418,193.576"/>
<path d="M657.346,230.781 L659.088,225.802 L659.803,223.759 L660.456,221.389 L662.756,213.04 L664.242,206.571 L666.079,198.609 L666.889,194.326 L667.888,188.793"/>
<path d="M554.25,181.529 L550.828,181.555 L548.873,181.569 L548.967,183.632"/>
<path d="M610.72,195.939 L607.939,196.261 L607.292,196.336"/>
<path d="M658.412,188.621 L661.955,188.425 L667.88,188.79"/>
<path d="M660.456,221.389 L659.807,224.025 L659.088,225.802"/>
<path d="M548.884,183.665 L548.783,181.518 L550.828,181.555"/>
<path d="M579.514,188.395 L588.808,192.085 L589.33,192.293"/>
<path d="M689.418,306.425 L688.416,305.121 L684.494,300.664 L683.988,299.982 L683.369,299.167"/>
<path d="M696.163,298.902 L695.819,299.714 L694.778,300.682 L692.239,303.044 L691.404,303.821 L690.131,304.855"/>
<path d="M692.807,303.567 L691.838,304.374 L689.892,305.994 L689.246,306.581 L691.05,305.107 L691.838,304.374"/>
<path d="M676.715,287.498 L681.856,294.641 L685.488,301.501 L688.261,302.442 L689.914,303.003 L690.425,302.667 L691.247,302.128 L694.587,299.936 L695.997,299.011 L696.977,298.367 L697.337,297.843 L697.757,297.232"/>
<path d="M695.819,299.714 L697.397,298.571 L697.373,299.335 L696.122,300.822 L693.373,304.09 L694.284,303.649 L697.657,300.348 L698.559,299.197"/>
<path d="M690.425,302.667 L691.39,302.26 L694.587,299.936"/>
<path d="M688.412,305.117 L686.603,306.295 L686.073,306.636"/>
<path d="M541.793,189.961 L542.553,189.953 L546.563,190.428 L547.666,190.615 L548.378,190.769 L549.228,190.961 L550.72,191.297 L552.328,191.659 L553.564,191.938 L559.349,193.221 L560.758,193.552 L563.213,194.297 L564.563,194.609 L567.656,195.375 L573.479,196.954 L574.34,197.219 L575.437,197.479 L576.828,197.873 L578.199,198.262 L580.023,198.78 L580.991,199.206 L581.745,199.261 L582.67,199.581 L583.625,199.911 L585.21,200.204 L584.674,200.456 L585.845,200.53 L588.865,201.784 L590.809,202.591 L593.895,203.004 L595.234,203.457"/>
<path d="M630.175,201.678 L627.198,201.959 L626.618,202.014"/>
<path d="M550.176,197.456 L549.674,197.822"/>
<path d="M626.082,201.93 L625.423,201.667 L624.508,201.736 L625.08,201.53 L625.634,201.751"/>
<path d="M618.309,201.986 L619.864,202.385 L620.602,202.575 L619.862,202.385 L617.699,201.831 L618.309,201.986"/>
<path d="M534.516,188.687 L534.542,189.397 L534.644,192.172 L534.671,192.907 L534.705,193.841 L534.837,194.442 L535.025,195.302 L535.897,199.293"/>
<path d="M654.426,199.225 L654.347,196.488 L654.23,193.481"/>
<path d="M534.837,194.442 L534.687,193.837 L534.638,192.926 L534.602,192.25 L534.477,189.922 L534.406,188.606"/>
<path d="M654.259,193.456 L654.347,196.488"/>
<path d="M650.84,209.066 L648.056,218.683 L647.243,221.491 L646.41,223.933"/>
<path d="M654.426,199.225 L653.365,202.136"/>
<path d="M486.121,354.292 L486.77,353.862 L487.658,353.275 L488.271,353.272 L489.078,353.834"/>
<path d="M516.825,309.845 L516.638,308.824 L516.245,306.686"/>
<path d="M520.305,360.231 L521.655,361.414"/>
<path d="M441.329,256.89 L441.412,256.354 L441.739,255.782 L441.449,256.354 L441.329,256.89"/>
<path d="M442.459,259.719 L438.234,260.035 L442.206,259.722 L442.785,259.721"/>
<path d="M335.458,298.746 L335.378,297.44 L335.381,296.76 L335.384,296.174 L335.134,295.32 L334.989,294.165"/>
<path d="M514.81,362.563 L515.339,362.588"/>
<path d="M551.706,367.636 L550.596,367.495 L549.981,367.416 L549.46,367.269 L548.889,367.019"/>
<path d="M340.149,291.801 L339.334,291.725 L339.897,291.761"/>
<path d="M524.117,362.636 L523.857,362.13"/>
<path d="M530.487,366.224 L529.939,365.927"/>
<path d="M379.902,192.149 L375.882,191.396 L368.21,190.401 L363.261,189.759 L363.285,190.481 L363.451,195.507 L364.064,199.754 L364.546,203.09 L365.602,209.69 L366.704,216.002 L367.242,219.041 L367.877,222.628 L368.68,226.106 L369.372,229.102"/>
<path d="M417.019,198.265 L414.423,197.53 L410.207,197.107 L407.431,196.733 L406.879,196.658"/>
<path d="M367.242,219.041 L366.848,217.105 L365.15,207.25 L364.26,202.083 L364.064,199.754"/>
<path d="M372.685,241.354 L371.838,239.286 L371.048,236.052 L370.611,234.265 L368.994,227.645 L368.68,226.106"/>
<path d="M419.843,198.804 L427.693,198.789 L437.662,198.006 L444.015,197.507"/>
<path d="M396.685,194.944 L406.546,196.602 L407.086,196.693 L414.021,197.49"/>
<path d="M370.611,234.265 L371.013,235.939 L372.685,241.354 L372.885,242.003 L375.367,248.021"/>
<path d="M433.931,198.494 L427.871,198.811 L424.434,198.954 L419.843,198.804 L418.8,198.77"/>
<path d="M446.376,197.181 L444.015,197.507 L440.704,197.965"/>
<path d="M363.285,190.481 L363.222,189.734 L368.21,190.401"/>
<path d="M403.464,196.198 L397.294,195.116"/>
<path d="M445.871,172.92 L443.808,172.356 L444.654,180.974 L444.786,182.321 L446.614,192.153 L446.943,193.921 L447.364,195.882 L447.608,197.016"/>
<path d="M579.451,188.885 L578.737,194.603 L578.226,198.27"/>
<path d="M444.654,180.974 L444.346,179.245 L443.763,172.262 L445.833,172.91"/>
<path d="M578.199,198.262 L578.725,194.483 L579.451,188.885 L579.934,185.155 L580.653,175.623 L580.908,172.239 L579.707,170.557"/>
<path d="M579.73,170.454 L580.951,172.134 L580.653,175.623"/>
<path d="M479.876,243.319 L479.825,244.576 L479.94,245.949"/>
<path d="M390.397,222.024 L390.077,220.469 L389.911,219.49 L389.033,214.511 L388.917,213.926 L388.041,209.413 L387.914,208.759 L387.18,204.218 L387.081,203.61 L386.96,202.861"/>
<path d="M402.381,222.501 L402.67,223.569 L403.429,222.656 L403.094,221.453 L402.381,222.501"/>
<path d="M496.447,196.498 L496.574,195.542 L496.668,194.835 L496.736,194.323 L496.988,192.419 L496.998,191.425 L497.055,185.928 L497.069,184.544"/>
<path d="M496.421,196.491 L496.383,197.132"/>
<path d="M497.141,184.488 L497.055,185.928"/>
<path d="M396.815,237.246 L394.651,232.525"/>
<path d="M387.097,204.184 L387.006,203.582 L386.953,202.82"/>
<path d="M389.621,218.161 L388.041,209.413"/>
<path d="M550.76,369.339 L560.524,369.367 L570.524,369.391 L580.524,369.414 L590.524,369.438 L594.659,369.448 L604.659,369.488 L614.659,369.527 L619.508,369.546 L629.508,369.508 L635.058,369.488 L644.377,369.393 L649.179,369.339"/>
<path d="M649.94,369.331 L650.582,369.323 L656.772,369.248 L659.826,369.199 L662.778,369.125 L665.567,369.013 L666.733,368.936 L667.269,368.901 L667.843,368.863 L669.352,368.743"/>
<path d="M342.964,366.008 L343.745,365.894 L344.513,366.006"/>
<path d="M694.015,359.574 L694.538,359.557"/>
<path d="M598.881,365.869 L599.421,365.772"/>
<path d="M678.337,363.861 L679.786,363.517 L682.044,363.322 L682.572,363.277 L682.029,363.542"/>
<path d="M661.952,367.392 L662.858,367.168 L665.133,367.487 L665.809,367.264 L666.616,366.998 L667.265,367.07 L669.226,366.639 L670.179,366.626 L671.152,366.396 L675.517,365.39 L676.732,365.11 L677.408,364.808"/>
<path d="M635.121,364.01 L638.092,364.36 L638.715,364.548 L640.01,364.739 L642.312,365.078 L645.766,365.125 L647.292,365.136 L650.171,365.192 L652.742,365.31 L656.048,365.304 L657.107,365.357 L658.012,365.374 L663.577,365.597 L657.588,365.405 L655.433,365.701 L652.107,365.692 L648.102,365.375 L646.106,365.258 L643.003,365.167 L640.33,364.76"/>
<path d="M640.283,366.795 L641.435,366.003 L642.026,365.855"/>
<path d="M376.231,363.006 L377.18,363.878 L378.145,364.766 L379.106,366.002"/>
<path d="M594.809,360.092 L600.282,361.319 L601.99,361.773 L600.734,361.444 L595.224,360.154 L594.716,360.073"/>
<path d="M681.545,360.724 L682.41,360.926 L683.542,361.799 L683.61,363.016 L684.17,363.384 L684.329,365.404"/>
<path d="M668.685,366.089 L669.506,365.44 L670.181,364.906 L670.711,364.794 L671.098,364.272 L672.071,363.618"/>
<path d="M715.445,366.252 L716.38,365.621 L717.979,365.51 L720.051,365.366"/>
<path d="M620.003,367.098 L622.84,367.396 L623.248,366.867 L624.577,366.176 L626.194,365.765 L629.071,364.993 L630.349,364.769 L631.389,364.594"/>
<path d="M618.624,355.044 L613.05,355.558 L612.041,355.6 L611.449,355.588 L606.767,355.418 L606.073,355.376 L605.362,355.348 L602.051,355.148 L601.305,354.961 L600.574,354.891 L599.897,354.826 L596.002,354.09 L592.603,353.176"/>
<path d="M362.269,363.617 L359.592,363.51 L357.734,363.525 L356.117,363.374 L356.055,362.853 L357.34,363.282 L359.589,363.507 L363.051,363.496 L365.67,363.904 L362.269,363.617"/>
<path d="M585.528,366.423 L585.96,365.845"/>
<path d="M373.219,350.711 L374.704,349.152"/>
<path d="M381.759,366.963 L381.555,366.167 L381.759,366.963"/>
<path d="M611.054,366.637 L611.172,367.197 L612.033,367.78 L613.995,368.171 L617.268,368.03 L623.363,367.817 L624.282,367.785 L624.96,367.787 L627.714,367.795"/>
<path d="M592.305,367.098 L592.961,366.889 L598.098,365.998 L599.342,365.793 L600.223,365.647 L602.142,365.034 L602.88,364.719 L605.362,363.334 L607.378,362.185 L610.241,362.802 L610.735,365.132 L610.994,366.356"/>
<path d="M654.306,367.863 L653.667,367.857 L649.591,367.819 L648.547,367.809 L647.125,367.302 L646.424,367.052 L642.636,365.702 L640.045,367.013 L639.467,367.33 L638.673,367.511 L637.832,367.702 L637.11,367.866 L636.502,367.965 L632.067,367.879 L629.04,367.82 L627.918,367.798 L625.245,367.747 L624.587,367.768 L623.103,367.816"/>
<path d="M602.142,365.034 L601.067,365.492 L600.223,365.647 L599.153,365.843 L598.169,366.023 L593.446,366.889 L592.51,367.061 L591.239,367.293 L591.135,366.067 L589.507,364.616 L588.96,364.639 L587.539,365.211 L586.429,365.657 L585.87,365.882 L584.143,366.575 L583.351,366.893 L582.132,367.383 L580.33,368.106 L574.255,367.873 L567.203,367.595 L560.59,367.415 L558.968,367.374 L553.792,367.244"/>
<path d="M582.132,367.383 L583.28,366.914 L585.89,365.85 L586.429,365.657 L587.577,365.246 L588.92,364.765 L589.457,364.572 L590.092,364.735 L590.718,365.484 L591.16,366.013"/>
<path d="M654.046,367.864 L655.443,367.888 L660.624,367.924 L662.931,367.919 L663.502,367.918 L664.347,367.916 L665.183,367.914 L666.607,367.91 L667.267,367.909"/>
<path d="M482.643,366.961 L477.851,367 L475.65,367.017 L472.944,367.037 L468.253,367.073 L466.939,367.083 L461.311,367.109 L459.505,367.118 L458.58,367.127 L449.342,367.217 L440.629,367.365 L431.718,367.645 L426.51,367.857 L422.85,368.007 L419.961,368.069"/>
<path d="M416.437,368.187 L417.523,368.162 L419.961,368.069 L425.386,367.861 L431.327,367.634 L439.215,367.385 L440.071,367.37 L447.692,367.234 L456.048,367.143 L458.58,367.127"/>
<path d="M560.59,367.415 L568.178,367.562 L574.896,367.863 L580.33,368.106"/>
<path d="M667.772,367.908 L668.35,367.906 L669.626,367.772 L672.443,367.475 L673.1,367.406 L675.634,367.139 L677.098,366.998 L678.201,366.892 L679.146,366.801 L680.177,366.702 L683.971,367.402 L685.458,367.606 L685.961,367.671 L687.408,367.859 L689.134,368.083 L690.377,368.244 L694.188,368.285 L696.814,368.212 L698.702,368.16 L700.655,368.107 L701.545,368.082 L702.398,368.059 L703.078,368.04 L705.751,367.918 L707.248,367.85 L708.093,367.814 L708.97,367.777 L710.838,367.698 L712.843,367.613 L715.448,367.474 L717.476,367.363 L720.291,367.209 L721.922,367.12"/>
<path d="M696.272,368.358 L693.084,368.376"/>
<path d="M339.207,367.946 L338.643,367.919 L338.143,367.896 L337.617,367.871 L337.005,367.843 L336.385,367.814 L335.813,367.787 L335.2,367.758 L334.699,367.735 L334.03,367.699 L333.522,367.672 L332.855,367.636 L332.145,367.599 L331.514,367.565 L330.885,367.532 L330.342,367.503 L329.807,367.474 L329.049,367.434 L328.394,367.399 L327.892,367.372 L327.356,367.356 L326.797,367.339 L326.238,367.323 L325.704,367.308 L325.197,367.294 L324.052,367.261 L323.46,367.244 L322.666,367.221 L321.915,367.199 L321.265,367.184 L320.413,367.178 L319.638,367.173 L318.803,367.167 L318.249,367.163 L317.488,367.158 L316.963,367.154 L316.257,367.149 L315.509,367.144 L314.196,367.134 L313.596,367.13 L312.774,367.125 L312.096,367.12 L311.3,367.116 L310.482,367.111 L308.923,367.101 L304.219,367.072 L302.073,366.957 L300.532,366.874 L299.598,366.824 L298.682,366.775"/>
<path d="M300.108,366.852 L301.87,366.919 L305.144,367.045 L308.591,367.076 L310.431,367.093 L311.302,367.101 L312.113,367.108 L312.774,367.114 L313.568,367.122 L314.105,367.127 L315.21,367.14"/>
<path d="M382.859,368.01 L383.755,368.187"/>
<path d="M461.311,367.109 L466.755,367.074 L468.074,367.063 L472.359,367.027 L479.171,366.97 L482.643,366.961 L484.913,366.956"/>
<path d="M323.46,367.244 L324.047,367.251 L325.2,367.266 L325.895,367.274 L326.434,367.281 L327.035,367.311 L327.552,367.337 L328.32,367.376 L329.062,367.413 L329.566,367.438 L330.067,367.463 L330.587,367.49 L331.115,367.516 L331.775,367.549 L332.484,367.585 L333.172,367.619 L333.682,367.645 L334.191,367.67 L334.74,367.699 L335.246,367.727 L335.819,367.758 L336.351,367.788 L336.949,367.821 L337.523,367.853 L338.083,367.884 L338.588,367.911 L339.104,367.94 L339.632,367.969 L340.135,367.982 L340.739,367.995 L341.321,368.008 L342.509,368.035 L343.219,368.05 L344.504,368.079 L345.235,368.095 L346.839,368.13 L347.359,368.142 L348.295,368.162 L348.96,368.177"/>
<path d="M722.553,366.263 L722.043,367.067 L720.436,367.158 L717.949,367.299 L715.534,367.436 L713.215,367.567"/>
<path d="M686.56,368.386 L691.667,368.41 L692.604,368.378"/>
<path d="M611.172,367.197 L611.054,366.637"/>
<path d="M627.753,367.795 L628.939,367.798 L629.641,367.8 L632.067,367.879 L636.208,368.012 L637.11,367.866 L637.862,367.745 L638.804,367.592 L639.88,367.012 L642.026,365.855"/>
<path d="M679.657,366.605 L678.765,366.701 L677.27,366.863 L673.166,367.308 L672.605,367.368 L669.623,367.692 L668.083,367.858 L667.55,367.916 L666.927,367.984 L663.103,367.947 L660.668,367.924"/>
<path d="M682.701,368.286 L676.814,367.842"/>
<path d="M352.397,368.187 L349.161,368.166"/>
<path d="M642.283,365.79 L645.941,366.932 L647.125,367.302 L648.62,367.768 L649.628,367.787 L653.667,367.857"/>
<path d="M383.527,368.187 L382.937,368.069"/>
<path d="M605.362,363.334 L603.528,364.443 L602.88,364.719"/>
<path d="M702.398,368.059 L701.689,368.091 L700.655,368.107 L698.51,368.102 L697.233,368.1 L689.134,368.083 L687.517,368.08 L686.556,367.899 L683.973,367.415 L681.82,367.011 L680.201,366.707"/>
<path d="M721.962,367.072 L722.566,366.341"/>
<path d="M614.211,368.105 L612.523,367.601 L611.216,367.21"/>
<path d="M677.016,367.74 L682.701,368.286 L683.6,368.372 L686.348,368.385"/>
<path d="M348.295,368.162 L347.4,368.158 L346.84,368.156 L345.681,368.15 L344.584,368.146 L343.36,368.14 L342.831,368.115 L341.765,368.065 L340.902,368.025 L340.146,367.99"/>
<path d="M709.698,368.379 L703.437,368.427"/>
<path d="M709.698,368.379 L711.061,368.4 L711.84,368.363"/>
<path d="M569.745,228.748 L568.663,230.583 L567.04,232.983 L566.523,233.618 L565.96,234.182 L561.351,239.233 L557.9,242.902"/>
<path d="M464.185,195.911 L464.064,195.375"/>
<path d="M462.795,187.915 L463.727,193.246 L464.121,195.496 L464.667,197.679 L464.812,198.257 L464.951,198.812 L465.71,201.847 L465.956,202.832 L466.142,203.573 L466.6,205.403 L467.093,206.643"/>
<path d="M570.506,227.561 L571.848,225.088 L572.928,221.57 L573.524,219.825 L575.254,214.765 L576.212,212.1 L576.779,210.534 L577.344,209.144 L578.41,206.518 L578.686,205.707"/>
<path d="M475.788,228.858 L477.273,233.603 L478.763,238.487 L479.121,239.509 L479.568,240.782"/>
<path d="M577.802,207.911 L577.344,209.144 L576.331,211.867 L575.254,214.765"/>
<path d="M480.071,242.553 L479.53,240.835 L479.288,240.069 L479.121,239.509 L476.978,232.317 L475.788,228.858 L475.535,228.124 L474.544,225.244 L474.26,224.419 L473.801,223.303 L470.214,214.58 L467.268,207.289 L467.093,206.643"/>
<path d="M470.351,214.824 L472.711,220.455 L473.801,223.303 L474.544,225.244 L475.16,226.853 L475.534,228.048"/>
<path d="M464.703,197.825 L464.122,195.679 L463.699,193.33 L462.728,187.892"/>
<path d="M579.76,202.551 L579.618,203.081 L579.368,204.005 L578.686,205.707"/>
<path d="M579.059,200.674 L579.872,202.138"/>
<path d="M573.524,219.825 L572.104,224.682"/>
<path d="M378.045,272.423 L377.377,272.548 L376.394,272.581 L375.786,272.39 L374.984,272.255 L373.813,272.153 L373.275,272.106 L372.676,272.054 L369.806,272.345"/>
<path d="M544.452,261.175 L547.225,261.241 L547.864,261.276 L548.581,261.315 L553.099,261.559 L554.987,261.661 L560.902,261.98 L561.715,262.01 L562.307,262.032 L562.878,262.054 L563.415,262.074 L563.994,262.096 L564.502,262.115 L566.028,262.172 L570.448,262.339 L570.977,262.346"/>
<path d="M646.639,267.937 L647.201,267.881 L648.713,267.921 L649.527,267.943 L650.871,267.979 L652.717,268.029 L653.963,268.107 L654.649,268.193 L657.272,268.521 L657.987,268.594 L658.919,268.69 L659.44,269.247 L660.125,269.831"/>
<path d="M669.634,283.458 L670.109,284.314 L670.586,284.946 L669.866,285.021 L669.294,285.081 L669.45,284.563 L669.7,283.902 L669.588,283.328"/>
<path d="M374.646,260.005 L379.048,260.233 L380.862,260.327 L381.54,260.362 L382.171,260.395 L384.421,260.511 L385.508,260.59 L386.802,260.742 L387.733,260.852"/>
<path d="M670.431,278.039 L671.208,278.563 L671.711,278.954 L672.064,279.89"/>
<path d="M409.693,273.043 L408.694,272.659 L407.93,272.366 L407.361,271.764 L407.002,271.263 L406.449,270.492 L405.903,270.146 L405.402,269.924 L404.663,269.598"/>
<path d="M425.552,272.557 L424.038,272.934 L421.42,273.189 L420.145,273.313 L419.412,272.805 L418.676,272.295 L418.078,271.881"/>
<path d="M255.62,369.339 L255.62,368.813 L255.62,368.187"/>
<path d="M276.474,369.339 L286.474,369.339 L289.013,369.339 L299.013,369.339 L304.135,369.339 L314.135,369.339 L321.601,369.339 L331.601,369.339 L341.136,369.339 L351.136,369.339 L361.136,369.339 L362.431,369.339 L372.431,369.339 L382.431,369.339 L385.151,369.339 L395.151,369.339 L405.151,369.339 L408.938,369.339 L418.938,369.339 L428.938,369.339 L433.416,369.339 L443.416,369.339 L453.416,369.339 L458.2,369.339 L468.2,369.339 L478.2,369.339 L482.898,369.339 L492.898,369.339 L502.898,369.339 L507.121,369.339 L517.121,369.339 L527.121,369.339 L530.488,369.339 L540.488,369.339 L542.173,369.339 L550.76,369.339 L552.628,369.339 L562.628,369.339 L572.628,369.339 L573.194,369.339 L583.194,369.339 L591.861,369.339 L601.861,369.339 L608.335,369.339 L618.335,369.339 L622.356,369.339 L632.356,369.339 L633.702,369.339"/>
<path d="M276.474,369.339 L266.715,369.339 L259.891,369.339 L256.109,369.339 L255.428,369.339"/>
<path d="M647.701,369.339 L649.179,369.339 L650.132,369.339"/>
<path d="M647.701,369.339 L642.195,369.339 L633.702,369.339"/>
<path d="M530.488,368.187 L529.931,368.187 L529.383,368.187 L528.809,368.187 L528.038,368.187 L527.46,368.187 L526.904,368.187 L526.151,368.187 L525.53,368.187 L524.93,368.187 L524.17,368.187 L523.265,368.187 L522.588,368.187 L522.076,368.187 L521.464,368.187 L520.756,368.187 L519.92,368.187 L519.256,368.187 L518.705,368.187 L518.056,368.187 L516.759,368.187 L516.075,368.187 L515.57,368.187 L515.026,368.187 L514.219,368.187 L513.62,368.187 L512.928,368.187 L512.425,368.187 L511.82,368.187 L510.299,368.187 L509.653,368.187 L508.991,368.187 L508.446,368.187 L507.505,368.187 L507.002,368.187 L506.132,368.187 L505.359,368.187 L504.555,368.187 L503.789,368.187 L503.222,368.187 L502.416,368.187 L501.734,368.187 L501.166,368.187 L500.361,368.187 L499.73,368.187 L498.414,368.187 L497.663,368.187 L497.075,368.187 L496.521,368.187 L495.998,368.187 L495.466,368.187 L494.668,368.187 L492.783,368.187 L491.578,368.187 L490.752,368.187 L490.042,368.187 L489.305,368.187 L486.512,368.187 L485.795,368.187 L482.898,368.187 L472.898,368.187 L462.898,368.187 L458.2,368.187 L448.2,368.187 L438.2,368.187 L433.416,368.187 L423.416,368.187 L416.437,368.187 L414.448,368.187 L408.938,368.187 L398.938,368.187 L388.938,368.187 L385.151,368.187"/>
<path d="M648.04,368.187 L645.303,368.187 L642.195,368.187 L633.702,368.187 L630.707,368.187 L626.927,368.187 L622.356,368.187 L612.769,368.187 L611.78,368.187 L608.335,368.187 L598.335,368.187 L591.861,368.187 L589.409,368.187 L582.76,368.187 L573.194,368.187 L563.194,368.187 L553.146,368.187 L552.628,368.187 L551.381,368.187 L550.136,368.187 L549.501,368.187 L548.986,368.187 L548.134,368.187 L546.799,368.187 L546.125,368.187 L545.14,368.187 L544.346,368.187 L543.769,368.187 L543.1,368.187 L542.524,368.187 L542.008,368.187 L541.489,368.187 L540.865,368.187 L540.232,368.187 L539.731,368.187 L539.201,368.187 L538.587,368.187 L538.005,368.187 L537.256,368.187 L536.634,368.187 L536.056,368.187 L535.502,368.187 L534.84,368.187 L534.12,368.187 L533.544,368.187 L533.018,368.187 L532.492,368.187 L531.963,368.187 L531.38,368.187 L530.77,368.187"/>
<path d="M341.136,368.187 L340.632,368.187 L340.089,368.187 L339.24,368.187 L338.632,368.187 L338.101,368.187 L337.588,368.187 L337.058,368.187 L336.522,368.187 L335.858,368.187 L335.203,368.187 L334.682,368.187 L333.926,368.187 L333.243,368.187 L332.673,368.187 L332.16,368.187 L331.25,368.187 L330.696,368.187 L329.952,368.187 L329.407,368.187 L328.852,368.187 L328.258,368.187 L327.716,368.187 L327.168,368.187 L326.374,368.187 L325.873,368.187 L325.342,368.187 L324.802,368.187 L324.289,368.187 L323.782,368.187 L323.224,368.187 L322.665,368.187 L322.161,368.187 L321.601,368.187 L321.022,368.187 L320.443,368.187 L319.776,368.187 L319.181,368.187 L318.407,368.187 L317.83,368.187 L316.831,368.187 L316.33,368.187 L315.693,368.187 L314.791,368.187 L314.175,368.187 L313.659,368.187 L312.505,368.187 L310.728,368.187 L309.931,368.187 L308.991,368.187 L307.962,368.187 L304.135,368.187 L300.264,368.187 L299.611,368.187 L289.521,368.187 L289.013,368.187 L279.013,368.187 L276.474,368.187 L266.715,368.187 L259.891,368.187 L256.109,368.187 L255.428,368.187 L257.86,368.187 L263.366,368.187 L271.859,368.187 L281.859,368.187 L283.205,368.187 L293.205,368.187 L297.225,368.187 L299.521,368.187"/>
<path d="M385.151,368.187 L383.755,368.187 L382.348,368.187 L372.003,368.187 L362.431,368.187 L355.753,368.187 L352.965,368.187 L352.397,368.187 L349.45,368.187 L348.756,368.187 L347.472,368.187 L346.841,368.187 L345.652,368.187 L345.136,368.187 L343.251,368.187 L342.494,368.187 L341.632,368.187"/>
<path d="M640.59,252.519 L641.264,253.55 L641.745,254.379 L642.039,254.888 L642.199,255.41 L641.518,254.755 L640.21,253.651"/>
<path d="M614.111,201.75 L613.61,201.561"/>
<path d="M628.557,191.184 L629.062,191.039 L629.656,190.95 L630.745,190.807"/>
<path d="M553.487,199.819 L554.94,198.873 L555.678,198.898 L557.279,199.469"/>
<path d="M579.618,203.081 L584.717,203.018 L585.571,203.059 L587.271,203.281 L588.798,203.151 L589.801,203.321 L591.958,203.467 L592.946,203.603 L593.686,203.586 L594.251,203.509 L595.234,203.457 L595.738,203.485 L598.69,204.119 L599.469,203.848 L600.521,203.432 L601.191,203.12 L603.286,203.722 L608.954,203.297 L610.438,203.186"/>
<path d="M608.954,203.297 L610.119,202.893 L611.027,202.637 L611.541,202.494 L613.922,201.802 L615.137,201.465 L620.424,200.714 L622.196,200.942 L623.437,201.442 L624.432,201.499 L625.26,201.34 L624.581,200.821 L627.174,200.954 L627.804,200.88 L628.314,200.305 L630.761,198.331 L633.809,196.515 L636.191,195.568 L636.99,195.25 L638.914,194.458 L639.718,194.127 L640.867,193.732 L643.179,193.617 L648.42,193.344 L650.816,193.365 L652.253,193.425 L653.11,193.51"/>
<path d="M622.379,202.413 L621.868,202.461 L622.378,202.398 L624.342,202.154 L624.906,202.085 L626.224,201.921 L627.365,201.779 L630.753,201.359"/>
<path d="M625.388,239.36 L626.785,240.934 L630.722,247.198 L631.045,247.83"/>
<path d="M546.519,196.744 L548.587,197.102 L549.633,197.335 L550.176,197.456"/>
<path d="M517.612,330.128 L517.816,330.637 L518.484,331.146 L518.992,331.532 L519.921,333.453 L520.358,334.071 L523.593,342.237 L523.738,343.29 L523.459,346.1 L523.633,348.43 L523.526,349.383 L523.516,349.999 L522.979,351.418 L523.551,353.223 L523.583,354.23 L524.302,355.201 L525.27,356.133 L526.311,357.651 L528.874,359.694"/>
<path d="M526.38,358.728 L532.795,361.427 L530.47,360.648 L531.563,361.598 L532.627,362.523 L533.637,362.567 L533.925,363.368"/>
<path d="M532.867,362.992 L533.4,363.302 L533.925,363.368 L534.464,363.544"/>
<path d="M521.559,361.794 L522.084,361.64 L522.55,362.191 L523.373,362.448 L523.929,362.624 L524.654,363.006"/>
<path d="M519.022,362.186 L519.671,362.547 L520.288,362.866"/>
<path d="M517.275,363.586 L516.616,363.201 L516.149,362.647 L515.593,362.125 L515.019,362.033 L514.454,362.474 L515.039,363.067 L515.656,363.759"/>
<path d="M488.653,325.382 L488.523,329.567"/>
<path d="M488.928,353.248 L489.717,353.532 L490.37,353.942 L492.259,354.5 L492.834,354.655 L493.361,354.865 L494.89,355.474 L495.414,355.682 L496.368,355.901 L497.311,356.117 L498.017,356.358 L499.743,357.098 L500.875,357.583 L502.609,358.326 L503.155,358.693 L503.93,358.861 L505.117,359.233 L509.393,360.837 L509.971,361.244 L511.006,361.526 L512.31,362.212"/>
<path d="M527.199,364.017 L526.639,363.853 L526.093,363.692 L526.658,364.15"/>
<path d="M526.482,364.28 L527.015,364.118 L527.619,363.969 L528.411,363.864 L529.239,363.814 L529.936,363.591 L530.557,364.107 L531.159,364.838 L531.772,365.311 L532.288,365.747 L532.885,365.887 L533.424,365.955 L534.227,366.057 L534.731,366.289"/>
<path d="M526.295,364.944 L526.843,364.782 L527.355,364.938 L528.112,365.189 L528.644,365.365 L529.225,365.641 L529.74,365.923 L530.263,366.21 L530.784,366.493 L531.378,366.698 L531.929,366.656 L532.503,366.724 L533.119,366.741 L533.654,366.636 L534.177,366.647 L534.745,366.465 L535.252,366.367 L535.882,366.43 L536.446,366.568 L536.969,366.695 L537.483,366.802 L538.084,366.856 L538.599,366.81 L539.25,366.764 L539.794,367.235 L539.115,367.789 L538.604,367.779 L538.095,367.672 L537.566,367.476 L537.041,367.461 L536.42,367.481 L535.877,367.453 L535.339,367.396 L534.706,367.499 L534.187,367.257"/>
<path d="M529.141,368.187 L528.578,368.028 L528.048,367.899 L527.49,367.935 L526.977,367.512 L526.337,367.454 L525.815,367.426 L525.267,367.529 L524.744,367.724 L525.273,367.436"/>
<path d="M478.068,353.071 L477.771,352.406 L473.698,343.266 L472.69,340.757 L469.964,333.273 L466.697,323.822 L463.463,314.464 L462.041,310.041 L461.642,308.824 L460.944,306.696 L460.505,305.359 L458.999,300.656 L456.807,294.272 L456.432,293.625 L455.14,290.9 L454.307,288.901 L453.675,287.391 L453.242,286.402 L452.776,285.335 L451.003,281.65 L450.649,280.618 L450.09,279.291 L449.58,278.098 L449.238,277.248 L448.92,276.452 L448.699,275.901 L448.313,274.936 L448.087,274.37 L447.796,273.644 L447.586,273.117 L447.365,272.566 L447.13,271.978 L446.899,271.401 L446.696,270.894 L446.473,270.28 L446.458,269.606 L446.106,269.054 L445.754,268.501 L445.344,267.855 L445.132,265.666 L445.04,264.574 L445.05,263.94"/>
<path d="M439.717,267.08 L439.169,267.004 L435.733,265.816 L434.472,265.242 L433.736,264.592 L433.307,264.077 L432.625,263.257 L432.067,262.586 L431.581,262.03 L430.952,261.395 L430.363,261.146"/>
<path d="M424.981,261.186 L424.141,259.931 L423.792,259.41 L422.65,257.706 L422.294,257.114"/>
<path d="M355.197,277.757 L354.772,278.311 L354.534,278.831 L354.001,279.078 L353.671,279.792 L353.373,280.435"/>
<path d="M337.707,289.647 L338.385,289.364 L337.795,289.278 L338.972,287.838 L339.432,287.295 L340.501,285.998 L341.096,285.278 L341.955,284.236 L343.814,281.982 L344.671,281.034 L345.802,279.805 L347.721,278.028 L348.395,277.559 L349.649,276.687"/>
<path d="M460.551,250.874 L461.338,250.571 L461.953,250.725 L461.93,251.27 L463.087,252.355 L463.716,252.825 L464.234,253.115 L464.737,253.397 L465.523,253.823 L466.104,254.269 L467.008,254.944 L467.894,255.864 L468.387,256.388"/>
<path d="M460.601,263.355 L461.362,263.564 L462.074,263.764 L461.336,263.89"/>
<path d="M452.919,261.338 L451.828,260.861 L451.832,260.177 L451.835,259.654 L452.311,260.219 L452.823,260.723 L453.206,261.24 L453.6,261.772 L454.264,261.596 L454.846,261.503 L455.356,261.816 L456.019,262.221 L456.772,262.245 L457.622,262.622 L458.537,263.028 L459.048,263.254 L460.088,263.587"/>
<path d="M483.153,256.524 L484.827,256.755 L486.56,256.946 L487.299,257.641 L488.438,258.153 L489.51,258.247 L490.242,258.192 L490.846,258.146 L491.826,258.455 L493.546,258.226 L492.707,258.61"/>
<path d="M511.454,260.745 L514.439,260.486 L519.059,260.086 L521.205,260.057 L524.009,260.019 L525.878,260.564 L526.72,261.251 L527.712,262.059 L528.803,262.949 L529.608,263.605 L532.118,265.651 L533.26,266.811 L534.044,267.608 L535.296,268.88 L534.525,269.5 L535.655,269.919 L536.838,270.358 L537.498,270.602 L538.863,271.209 L539.569,271.524 L540.666,272.471 L541.588,273.267 L541.74,274.159 L541.857,274.845 L541.951,275.46 L542.029,275.976 L542.136,276.686 L542.234,277.342 L542.316,277.882 L542.803,281.116 L542.941,281.91 L543.387,285.063 L543.705,287.31 L544.377,293.928 L545.227,303.892 L545.466,306.686 L545.542,307.579 L545.652,308.824 L546.068,313.506 L546.244,315.744 L546.84,324.39 L547.564,334.363 L547.789,337.458 L548.4,347.439 L548.513,349.284 L548.582,350.386 L548.801,353.908 L549.25,361.136 L549.601,362.929 L549.035,363.68 L549.212,365.115"/>
<path d="M552.985,366.307 L552.331,366.492"/>
<path d="M552.949,367.351 L552.358,367.143"/>
<path d="M543.419,363.413 L542.426,364.42 L543.542,364.796 L543.826,365.343 L543.502,365.924"/>
<path d="M542.578,365.269 L542.1,364.465 L541.611,365.163"/>
<path d="M503.414,328.7 L504.051,325.532"/>
<path d="M484.44,357.072 L485.478,355.665"/>
<path d="M490.178,337.739 L490.25,336.026 L490.398,332.523 L490.463,323.745 L490.225,317.759 L490.223,314.688 L490.186,310.185 L490.227,309.29 L490.376,306.687 L490.557,304.216 L490.3,302.129 L490.328,300.359 L490.783,293.333 L490.88,292.686 L491.274,289.49 L491.66,286.979 L491.826,285.895 L491.893,285.321 L492.607,282.559 L492.843,279.385 L492.989,278.811 L493.729,277.76 L493.395,277.206 L493.539,276.262 L493.65,275.691"/>
<path d="M517.567,366.435 L517.016,366.343 L517.693,365.919 L518.201,365.697 L518.74,365.463 L519.366,365.266 L519.925,365.121 L520.472,364.978 L521.047,364.828 L521.649,364.672 L522.158,364.539 L522.702,364.664 L523.353,364.613 L524.004,364.414 L524.52,364.414 L525.052,364.414"/>
<path d="M338.357,305.023 L338.588,303.443 L338.719,302.514 L338.802,303.207"/>
<path d="M450.035,263.616 L449.475,263.316 L448.646,262.873 L447.604,261.933 L447.176,261.366 L446.687,260.759 L446.072,260.094 L445.415,259.314 L444.928,258.736 L444.24,257.919 L445.243,258.465"/>
<path d="M434.149,258.518 L434.868,257.316 L437.281,256.632"/>
<path d="M480.067,255.988 L481.704,255.906 L482.296,256.445"/>
<path d="M482.82,256.712 L484.31,256.824 L484.935,257.062 L485.598,257.329 L487.147,257.952 L488.367,258.675 L488.998,259.064 L489.518,259.385 L490.019,259.637 L490.431,260.204 L490.989,260.512 L492.252,261.083 L492.883,261.368 L493.422,261.613 L495.136,261.956 L496.046,262.139 L497.179,261.906 L498.452,261.308 L499.241,261.032 L500.782,260.581 L502.182,260.368 L504.778,260.417 L505.328,260.332 L505.928,260.24 L507.079,260.158 L508.129,260.083 L508.761,259.806 L509.604,259.927 L509.059,259.869 L508.042,259.76"/>
<path d="M520.124,362.174 L520.42,362.693"/>
<path d="M525.263,362.451 L525.466,361.724 L525.295,360.515 L524.614,359.901 L523.743,360.598 L523.116,361.314"/>
<path d="M544.76,366.95 L545.275,366.874"/>
<path d="M545.622,366.61 L545.866,366.085 L545.864,365.17 L546.862,365.452"/>
<path d="M547.466,365.277 L548.708,365.082 L549.212,365.115 L549.902,365.827"/>
<path d="M548.828,366.388 L549.311,365.748 L548.451,366.025"/>
<path d="M541.094,362.667 L542.047,362.773 L543.37,363.109 L545.401,364.312 L546.143,363.958 L546.781,364.248 L547.517,365.146 L547.304,365.702 L546.982,366.212 L546.505,366.722"/>
<path d="M419.564,261.177 L419.748,260.622 L419.925,259.505 L420.103,258.38 L420.345,257.466 L420.605,256.542 L420.825,255.81 L422.585,255.536 L425.439,254.996 L426.063,254.937 L426.644,254.888 L428.567,254.769 L429.341,254.721 L430.226,254.667 L432.141,255.253 L432.906,255.574"/>
<path d="M511.672,354.434 L511.837,354.993 L513.429,356.099 L514.265,356.656 L514.806,356.892 L515.19,357.644 L515.116,358.43"/>
<path d="M476.106,259.602 L477.343,260 L477.872,260.589"/>
<path d="M481.054,262.32 L480.468,261.593 L481.437,262.321 L482.107,262.823 L482.956,263.125 L483.525,263.766 L484.023,264.328"/>
<path d="M535.434,363.814 L536.051,364.36 L535.806,363.85 L535.538,363.301 L535.366,363.869 L535.337,364.688 L535.438,365.215 L536.06,365.29 L536.7,365.623"/>
<path d="M535.875,366.373 L535.263,365.9 L534.784,365.391 L534.39,364.672 L534.467,364.069 L534.681,363.552 L535.268,362.759 L535.88,363.361 L535.982,363.867 L536.084,364.377 L535.337,364.688"/>
<path d="M545.351,367.382 L545.937,367.074 L546.523,366.764 L547.095,366.532 L548.828,366.388 L549.847,366.147 L550.934,366.419 L551.582,366.704 L552.201,366.913 L552.876,366.951 L553.287,367.521 L553.175,368.092"/>
<path d="M552.577,368.187 L551.862,367.632 L551.32,367.353"/>
<path d="M543.319,365.764 L543.878,366.251 L544.448,366.735"/>
<path d="M544.716,365.666 L545.279,365.852 L545.877,365.994"/>
<path d="M549.495,367.685 L550.725,367.513"/>
<path d="M507.355,259.493 L510.35,259.873 L511.433,260.728 L512.174,261.314"/>
<path d="M389.359,258.656 L391.408,256.886 L395.332,253.898"/>
<path d="M377.033,200.752 L378.221,200.943 L380.976,201.627 L382.162,201.904 L384.145,202.51 L387.006,203.582"/>
<path d="M447.608,197.016 L446.845,197.096 L447.431,197.867"/>
<path d="M465.78,182.299 L469.062,183.457 L471.032,184.404 L473.283,185.324 L473.926,185.731 L474.679,185.877 L477.665,186.88 L479.06,187.275 L479.553,187.868 L482.395,188.858"/>
<path d="M473.963,186.695 L475.457,187.553 L476.928,188 L481.835,189.47"/>
<path d="M391.554,192.903 L396.494,194.882 L397.041,195.06 L398.197,195.436 L398.824,195.824 L400.365,196.93"/>
<path d="M400.271,196.902 L403.283,197.806 L406.126,199.227 L406.742,199.605 L407.596,200.599 L408.536,200.573 L409.383,200.29 L410.374,200.186 L410.987,200.295 L412.497,201.22 L413.176,201.079 L414.158,201.278 L416.143,201.156 L418.495,201.391 L421.496,201.576 L426.489,202.401 L427.57,201.616 L429.672,201.316 L431.311,201.757 L435.86,201.778 L438.588,201.999 L439.164,201.596 L440.32,201.439 L441.357,202.2 L442.257,202.721 L442.869,202.806 L443.45,202.647 L446.613,201.327 L447.812,201.464 L448.371,201.361 L452.513,200.599 L456.192,200.448 L456.74,199.951 L457.728,200.002 L459.407,199.263 L459.807,198.695 L460.939,198.233 L461.683,198 L462.879,197.648 L463.402,197.68 L464.153,197.739 L464.686,197.759"/>
<path d="M464.664,197.679 L463.26,197.625 L464.641,198.163"/>
<path d="M474.306,234.63 L475.111,235.435 L477.915,239.714 L478.425,241.002 L479.023,241.957 L479.875,243.317"/>
<path d="M302.409,365.951 L306.403,366.337 L308.326,366.559 L311.306,366.482 L312.442,366.959 L313.3,366.978 L315.125,366.982"/>
<path d="M322.823,365.939 L323.658,365.475 L324.337,365.087 L325.156,364.749 L325.73,364.538 L326.236,364.352 L326.75,364.082 L327.367,363.758 L328.071,363.513 L328.633,363.494"/>
<path d="M328.633,363.494 L329.142,363.483 L329.903,363.175 L330.553,363.093 L331.332,362.994 L331.886,362.924 L332.491,362.847 L333.059,362.776 L333.697,362.695 L334.374,362.609 L335.008,362.478 L335.736,362.327 L336.387,362.199 L337.185,362.047 L337.972,361.983 L338.526,361.961 L339.029,361.77 L339.78,361.508 L340.324,361.112 L342.369,362.129 L340.846,360.68 L340.324,361.112"/>
<path d="M338.841,361.755 L339.256,361.053 L339.576,360.455 L341.142,359.388 L342.273,358.558 L343.366,358.269 L344.212,358.284 L345.627,357.326 L346.348,356.417 L347.112,355.453 L347.672,355.204 L348.189,355.145 L349.069,355.045 L350.22,354.914 L351.486,354.549 L352.954,354.105 L354.742,354.034 L356.244,354.325 L358.632,354.292"/>
<path d="M344.977,294.911 L345.288,294.175 L346.768,290.918 L347.756,288.853 L348.113,288.314 L349.273,286.646 L349.91,285.748 L351.654,283.289 L352.286,282.448 L352.867,281.674 L353.629,280.66 L354.099,280.034 L354.7,279.511 L355.212,278.967 L354.7,279.511"/>
<path d="M694.432,359.56 L693.022,358.856 L693.93,359.56"/>
<path d="M670.374,286.782 L671.116,287.939 L673.78,291.74 L674.132,292.247 L674.472,292.798 L675.212,294.001 L675.604,294.636 L676.765,296.522 L677.153,297.304 L677.578,298.237 L678.513,300.285 L678.747,300.798 L679.091,301.551 L679.337,302.09 L682.017,307.965 L682.277,308.577 L683.058,310.412 L683.879,311.537 L684.285,312.39 L684.339,314.011 L684.451,314.554 L684.235,315.084 L684.403,315.65 L684.765,316.89 L685.135,317.986 L685.463,319.166 L685.938,320.168 L686.541,322.883 L686.964,325.223 L687.448,326.202 L688.346,327.615 L689.017,329.346 L689.661,331.293 L690.211,332.858 L690.701,334.298 L691.328,335.55 L691.518,336.418 L691.677,337.541 L691.028,338.398 L691.956,339.565 L692.323,340.14 L693.932,341.686 L694.922,343.091 L695.023,343.777 L695.574,345.855 L695.283,347.806 L694.916,348.666 L694.46,350.022 L693.777,352.222 L693.637,352.746 L693.378,353.351 L692.454,355.271 L692.349,356.233 L692.268,356.978 L691.992,358.157 L691.307,360.067 L691.183,361.062 L691.102,361.708 L690.224,363.82"/>
<path d="M693.6,356.778 L695.466,355.766 L696.165,355.846 L696.966,355.773 L697.487,355.835 L698.086,356.211 L698.647,355.957 L700.837,357.126 L701.539,357.553 L702.681,358.614 L703.537,359.332"/>
<path d="M696.427,360.48 L697.836,359.456 L700.354,359.66 L701.613,359.079 L700.677,360.19 L702.624,359.378 L703.537,359.332 L705.767,359.28 L707.339,359.982 L707.938,360.499 L708.577,360.267 L709.46,360.337 L710.105,360.325 L711.872,360.747 L713.48,361.243 L715.974,362.239 L717.689,363.129 L720.701,364.35 L721.908,364.833 L722.625,365.949"/>
<path d="M623.248,366.867 L622.578,366.508 L621.361,366.574 L620.043,365.585 L619.382,365.089 L620.014,365.582 L621.394,366.658"/>
<path d="M684.438,313.629 L684.477,314.367"/>
<path d="M592.575,350.217 L589.822,350.983 L588.377,351.474 L587.271,351.614 L586.28,351.864 L583.312,352.029 L581.811,352.539 L580.028,352.591 L577.879,352.658 L576.539,352.629 L573.577,352.752 L571.802,352.71 L569.845,352.878 L567.154,352.885 L565.039,353.018 L563.096,353.046 L561.32,353.074 L557.931,353.328 L556.441,353.364 L554.573,353.271 L549.899,353.812 L549.397,353.853 L548.801,353.908"/>
<path d="M326.091,354.636 L325.937,355.251 L325.468,354.469 L324.998,353.623 L324.538,352.888 L324.141,352.358 L323.841,351.119 L323.407,350.382 L323.095,349.853 L322.736,349.033 L322.559,348.436 L322.297,347.556 L322.11,346.686 L321.587,344.243 L321.505,343.405 L321.404,341.784 L321.246,341.196 L322.054,339.771 L322.828,338.115 L323.216,337.218 L323.853,335.658 L324.138,334.961 L324.437,334.228 L325.303,332.559 L325.643,331.713 L325.845,331.209 L326.317,330.369 L326.522,329.814 L326.8,329.064 L327.216,327.94 L328.073,326.95 L328.683,325.757 L329.633,324.338"/>
<path d="M595.241,365.088 L594.29,364.916 L595.097,365.129 L596.114,364.841 L597.184,364.813 L599.076,364.315 L600.312,363.512 L601.005,363.213 L601.622,362.897 L603.11,362.201 L605.702,361.217 L608.134,361.006 L610.773,361.951 L614.587,363.182 L615.77,363.633 L618.427,364.663 L619.192,365.495 L619.724,366.457"/>
<path d="M637.735,367.724 L636.788,367.684 L637.832,367.702"/>
<path d="M722.566,366.341 L722.082,367.539 L720.572,368.34 L717.546,368.38 L719.136,368.378 L713.512,368.349 L712.991,368.347 L712.419,368.344 L708.067,368.322 L706.094,368.323 L703.023,368.326 L702.003,368.326 L696.272,368.358 L693.084,368.376 L691.226,368.386 L689.618,368.375 L688.626,368.344 L686.56,368.386 L685.397,368.328 L683.438,368.12 L682.683,367.602 L681.59,367.309 L680.323,366.688"/>
<path d="M375.589,362.452 L376.231,363.006"/>
<path d="M586.015,362.724 L586.641,362.766 L587.494,362.909 L588.63,363.308 L590.571,363.982 L590.624,364.791 L591.524,365.503 L590.876,364.893"/>
<path d="M685.961,367.671 L685.458,367.606"/>
<path d="M358.95,343.505 L360.886,344.966 L361.955,346.458 L362.662,348.712"/>
<path d="M684.209,357.535 L683.698,357.665 L681.737,358.141 L680.347,358.448 L679.477,358.547 L678.222,358.543 L675.274,359.144 L674.546,359.205 L673.93,359.311 L672.339,359.213 L670.63,359.844 L669.786,359.955 L669.229,360.122 L668.465,360.351 L667.273,360.487 L666.68,360.555 L665.02,360.556 L661.633,360.628 L660.9,360.637 L658.569,360.411 L657.388,360.25 L655.079,360.575 L654.494,360.568 L650.52,360.598 L646.704,360.676 L644.465,360.169 L643.904,360.09 L643.166,359.948 L640.207,358.962 L639.493,358.559 L638.165,358.195 L636.976,357.6 L634.211,356.655 L633.004,356.141 L630.845,355.132 L632.637,355.97"/>
<path d="M325.121,368.187 L324.546,368.174 L323.994,368.161 L323.27,368.089 L322.676,368.15 L322.169,368.187"/>
<path d="M343.995,365.482 L344.565,365.36 L345.682,365.389 L347.844,365.33 L348.46,365.314 L349.765,365.278 L350.36,365.204 L352.761,364.905 L354.212,364.724 L354.96,364.874 L356.403,365.261 L357.617,365.351 L360.569,365.821 L363.722,366.054 L365.047,366.093 L366.28,366.256 L367.967,366.335 L369.678,366.408 L369.644,366.931 L369.935,367.83"/>
<path d="M668.709,366.07 L667.341,365.907 L668.606,366.111"/>
<path d="M691.808,367.133 L691.298,366.862 L691.905,366.647 L693.066,366.678 L694.683,366.721 L695.859,366.752 L697.592,366.825 L699.107,366.839 L701.976,366.745 L702.95,366.68 L705.559,366.615 L707.974,366.555 L708.68,366.552 L710.16,366.373 L712.451,366.701 L715.138,365.893"/>
<path d="M617.552,367.877 L620.003,367.098"/>
<path d="M626.165,353.083 L622.993,354.554 L618.624,355.044"/>
<path d="M357.446,340.66 L356.114,339.925"/>
<path d="M358.956,355.129 L359.591,354.657 L360.539,354.608"/>
<path d="M473.081,194.109 L473.924,194.147 L474.546,194.189 L475.615,194.229 L477.186,194.329 L478.09,194.387 L478.97,194.443 L483.02,194.98 L487.181,195.532 L487.847,195.639 L488.38,195.787 L489.649,196.14 L490.348,196.53 L492.526,197.08 L493.167,197.196 L496.132,197.736"/>
<path d="M550.781,229.245 L550.872,229.853 L550.982,230.408 L552.001,231.054 L553.539,233.636 L553.624,234.19 L555.558,237.702 L556.008,238.726 L556.243,239.263 L557.399,242.997 L557.704,243.982 L558.224,245.55 L558.935,247.464"/>
<path d="M482.123,250.323 L482.533,249.757 L483.071,249.048"/>
<path d="M483.073,249.051 L482.557,249.742 L482.123,250.323 L481.668,250.932 L481.263,251.474 L481.839,251.071 L482.383,250.691 L482.643,250.095 L482.928,249.503 L483.208,248.921 L484.323,246.603 L485.028,245.803 L485.806,245.211 L486.59,244.347 L487.564,243.677 L489.213,242.369 L491.397,241.785 L491.931,239.938 L493.514,238.246"/>
<path d="M664.496,275.592 L663.987,275.983 L663.419,276.418 L662.756,276.399 L661.998,276.377 L661.379,276.358 L660.86,276.448 L660.053,276.588 L659.529,276.679 L656.842,277.145 L655.916,277.117 L655.365,277.266 L654.541,277.386 L653.459,277.451"/>
<path d="M673.256,268.67 L673.976,269.041 L674.688,269.923"/>
<path d="M363.29,272.601 L362.696,272.586 L362.19,272.574 L361.54,272.558 L361.028,272.546"/>
<path d="M362.517,272.61 L361.82,272.817 L361.098,272.849 L360.584,272.872"/>
<path d="M363.448,272.637 L363.381,273.159 L363.692,272.611"/>
<path d="M360.3,273.627 L360.84,273.826 L361.358,273.82 L360.799,273.804 L360.07,273.84 L359.361,273.683 L358.632,273.517 L358.106,273.334 L358.645,273.38 L358.133,273.235 L357.493,273.054 L356.89,272.638 L356.186,272.156 L355.608,271.765 L355.105,271.337 L354.596,270.848 L354.003,270.279 L353.587,269.701 L353.455,268.736 L353.438,268.19 L353.969,267.641 L355.695,267.068 L356.475,266.755 L358.855,265.718 L359.993,265.223 L361.207,264.84 L361.997,264.599 L365.622,263.551 L367.215,263.091 L370.894,262.281 L373.202,261.809 L373.822,261.682 L374.409,261.625 L375.701,261.622 L376.695,261.62 L377.741,261.618 L380.393,261.254 L381.793,261.113 L382.475,261.044 L383.549,261.001 L384.387,260.967 L386.058,260.901 L386.596,260.897 L387.934,260.887 L388.798,260.881 L389.436,260.877 L391.902,260.817 L393.561,260.776 L396.532,260.835 L397.096,260.87 L398.709,260.971 L400.226,261.066 L401.966,261.175 L402.681,261.22 L403.286,261.258 L403.866,261.294 L404.708,261.345 L405.313,261.381 L406.949,261.478 L407.587,261.516 L408.805,261.597 L409.341,261.633"/>
<path d="M383.881,266.8 L382.947,266.825 L384.06,266.773"/>
<path d="M553.099,261.559 L555.291,261.527 L561.888,261.431 L562.45,261.423 L563.868,261.403 L564.478,261.394 L567.819,261.346 L568.68,261.333 L571.553,261.292 L572.281,261.299 L573.097,261.307 L574.152,261.318 L574.752,261.324 L576.496,261.342 L581.59,261.395 L584.673,261.467 L590.649,261.992 L592.284,262.326 L594.192,262.428 L596.408,262.904"/>
<path d="M596.611,262.827 L602.355,263.225 L603.942,263.413 L606.459,263.711 L609.469,263.834 L612.489,263.803 L614.059,263.984 L614.74,263.827 L615.713,263.689 L617.057,263.654 L617.923,263.631 L619.212,263.598 L620.855,263.556 L621.774,263.935 L622.442,264.2 L622.945,264.399"/>
<path d="M659.694,268.086 L658.571,267.421 L659.694,268.086"/>
<path d="M662.893,270.445 L662.462,271.351 L662.605,272.291 L662.469,272.829 L662.093,273.432 L661.762,273.961 L661.117,274.498 L660.312,274.947 L659.269,275.371 L658.619,275.635 L658.036,275.817 L657.108,275.992 L654.85,276.961 L654.172,277.252 L653.459,277.451 L651.415,277.958 L650.898,278.095 L649.767,278.394 L648.976,278.604 L647.073,278.912 L646.511,279.004 L644.471,279.285 L642.012,279.623 L641.363,279.693 L640.802,279.681 L638.077,279.483 L636.678,279.388 L635,279.211 L634.142,278.922 L631.963,279.261 L630.521,279.161 L627.849,279.074 L626.905,279.051 L625.941,278.692 L623.465,278.793 L622.776,278.794 L619.824,278.58 L618.44,278.388 L617.464,278.238 L616.946,278.282 L615.506,277.631 L612.846,277.916 L611.622,278.047 L610.125,278.208 L609.554,278.205 L606.306,278.098 L603.719,278.164 L600.738,278.098 L596.058,277.792 L595.464,277.792 L594.952,277.791 L590.785,277.679 L589.811,277.513 L588.773,277.557 L584.986,277.27 L581.103,277.022 L580.537,276.972 L578.357,276.781 L576.812,276.689 L574.792,276.615 L573.583,276.417 L572.486,276.146 L571.208,276.122 L568.555,276.183 L568.034,276.195 L566.787,275.929 L566.265,275.818 L565.726,275.702 L563.807,275.803"/>
<path d="M447.502,273.123 L445.911,273.115 L444.461,273.108 L443.398,273.104 L442.707,273.083 L440.659,273.022 L439.12,272.982 L436.245,272.907 L435.167,272.851 L433.741,272.842 L433.021,272.676 L431.862,272.733 L430.092,272.701 L428.595,272.64 L427.465,272.594 L425.63,272.512 L424.248,272.451 L422.231,272.361 L421.334,272.282 L420.774,272.239 L418.761,271.972 L418.078,271.881 L417.203,271.764 L416.186,271.595 L415.307,271.568 L414.788,271.552 L414.18,271.45 L413.569,271.347 L412.198,271.113 L411.496,270.982 L410.911,270.861 L410.131,270.7 L408.701,270.404 L407.496,270.148 L406.817,270.003 L406.25,269.883 L405.676,269.761 L405.127,269.644 L404.536,269.38 L403.289,268.952 L402.738,268.907 L402.125,268.663 L401.441,268.39 L400.791,268.709 L399.685,268.865 L399.129,268.917 L398.575,268.814 L397.713,268.488 L397.206,268.297 L396.7,268.105 L396.16,267.901 L395.569,267.678 L394.762,267.373 L394.203,267.901 L393.675,268.054 L393.138,268.209 L392.285,268.351 L391.734,268.443 L391.109,268.547 L390.386,268.518 L389.464,268.526 L388.094,268.13 L387.578,267.981 L387.046,268.148 L386.478,268.042 L385.907,268.545 L385.377,269.014 L384.833,269.495 L384.058,269.813"/>
<path d="M454.126,288.468 L453.552,288.592 L450.133,289.144 L447.741,289.542 L444.517,289.922 L443.029,289.917 L441.967,290.178 L441.215,290.12 L439.753,290.35 L437.435,290.259 L435.471,290.67 L433.26,290.886 L431.264,290.952 L429.928,291.123 L427.64,291.216 L426.278,291.164 L424.699,291.402 L421.85,291.434 L420.363,291.664 L419.363,291.624 L415.387,291.741 L413.16,291.889 L410.767,291.789 L410.248,291.825 L407.395,291.731 L404.224,291.642 L402.936,291.456 L401.798,291.411 L398.296,290.817 L395.773,290.793 L393.051,290.08 L390.191,289.599 L386.984,289.185 L383.974,285.506 L382.669,282.943 L381.91,281.911 L380.961,279.61 L380.531,278.567 L380.393,277.937 L380.255,277.36 L380.115,276.818 L379.862,275.459 L379.813,273.811 L379.733,273.163 L379.592,272.643 L379.455,272.14"/>
<path d="M674.293,279.058 L674.215,279.598 L673.962,280.251"/>
<path d="M670.882,278.225 L671.616,278.703 L672.135,279.061 L673.024,280.726 L673.131,281.31 L673.24,281.812"/>
<path d="M671.698,280.708 L671.909,280.188 L671.907,280.819 L671.541,281.431 L671.351,282.066 L671.125,282.919 L670.611,283.842"/>
<path d="M669.223,285.147 L669.732,285.13 L670.484,285.106 L670.278,286.33 L669.736,286.735 L670.011,288.175 L668.795,287.506"/>
<path d="M625.807,264.774 L623.352,264.14 L621.436,263.645 L627.025,264.618 L628.345,264.898 L630.104,265.336 L630.619,265.465 L634.079,266.326 L634.682,266.511 L636.41,267.009 L636.988,267.176 L637.665,267.371 L638.671,267.649 L639.376,267.844 L640.532,268.022 L641.75,268.194 L642.613,268.138 L643.223,268.099 L644.057,268.045 L644.783,267.998 L645.533,267.949 L646.036,267.917 L646.639,267.937"/>
<path d="M660.125,269.831 L659.009,268.742 L660.222,269.596"/>
<path d="M673.15,280.848 L673.766,281.173 L673.15,280.848"/>
<path d="M357.587,277.658 L357.966,277.046 L358.136,276.431 L358.287,275.869 L358.557,275.302 L359.707,274.608 L361.195,274.08 L362.43,273.758 L363.201,273.622 L364.538,273.815 L365.393,274.027 L366.223,274.539"/>
<path d="M365.964,273.554 L365.434,273.499 L364.817,273.352 L365.006,272.654"/>
<path d="M666.634,269.798 L667.029,269.173 L667.059,269.92"/>
<path d="M382.669,282.943 L381.031,282.839 L376.903,282.834 L374.82,282.466 L373.928,282.45 L370.952,281.894 L370.147,281.547 L368.255,281.565 L367.534,281.421 L366.999,281.291 L362.664,280.527 L361.897,280.475 L359.854,280.199 L359.504,279.607 L358.7,279.897 L358.081,279.74 L357.521,279.556 L356.57,279.243 L356.624,278.625 L356.261,278.12 L356.219,277.389 L355.903,276.875"/>
<path d="M369.05,273.411 L369.596,273.628 L370.1,273.915 L370.758,274.216 L371.352,274.479 L371.889,274.794 L372.895,275.441 L373.676,276.034 L374.453,276.625 L375.14,277.147 L375.973,277.645 L376.54,277.977 L375.912,278.45 L378.157,279.592"/>
<path d="M398.84,272.598 L399.019,272.067 L399.446,271.551 L400.404,270.997"/>
<path d="M621.923,269.637 L624.762,270.147 L625.432,270.279 L626.601,270.579 L627.708,270.864 L630.953,271.697 L631.887,271.937 L632.686,272.137 L633.354,272.304"/>
<path d="M671.903,279.417 L672.031,279.963"/>
<path d="M366.868,270.3 L367.376,269.975 L367.917,269.621 L368.427,269.277 L369.019,268.879 L369.647,268.519 L370.18,268.306 L371.431,267.856 L371.969,267.68 L373.115,267.306 L373.781,267.089 L375.219,266.619 L375.767,266.44 L377.674,265.817 L378.229,265.679 L379.12,265.457 L380.022,265.233 L380.973,264.996 L381.738,264.799 L382.634,264.556 L383.322,264.369 L383.974,264.192 L384.479,264.055 L386.267,263.615 L386.921,263.46 L387.77,263.281 L388.366,263.164 L389.148,263.346"/>
<path d="M670.536,278.067 L670.016,277.685"/>
<path d="M368.537,275.222 L368.308,275.747 L368.092,275.12"/>
<path d="M299.11,366.798 L300.001,366.159 L300.666,365.92 L301.425,366.232"/>
<path d="M299.521,368.187 L299.114,367.308"/>
<path d="M300.001,366.159 L301.911,364.965 L304.404,363.167 L308.328,360.956 L310.813,360.359 L311.648,359.811 L313.323,359.506 L314.395,359.19 L315.551,358.754 L316.164,358.641 L317.127,358.538"/>
<path d="M313.106,366.293 L315.247,366.27 L315.983,366.268 L316.608,366.252 L317.364,366.262 L317.929,366.276 L320.018,366.328"/>
<path d="M315.551,358.754 L315.597,358.253 L315.671,357.47 L316.009,355.666 L316.165,354.939 L316.998,353.591 L317.181,353.052 L318.015,350.469 L319.699,347.102 L321.356,344.32"/>
<path d="M321.356,344.32 L321.457,342.688 L321.27,341.942 L321.196,340.853 L321.761,334.193 L322.922,324.261 L323.697,317.623 L325.03,307.713 L325.199,306.452 L326.227,301.772 L327.284,298 L327.436,297.474 L327.837,296.09 L330.959,287.646 L331.973,285.871 L336.301,278.852 L338.935,276.497 L341.3,274.711 L343.365,273.299 L347.592,270.553 L354.878,267.17 L358.855,265.718"/>
<path d="M320.492,366.4 L321.639,366.249"/>
<path d="M322.828,338.115 L322.851,337.438 L323.131,336.175 L322.978,335.4 L323.025,332.704 L323.191,331.996 L323.112,331.358 L323.735,329.976 L323.4,327.601 L323.447,327.082 L323.583,325.98 L323.925,323.978 L323.984,322.453 L324.332,318.905 L324.579,318.187 L324.543,317.471 L324.647,316.533 L325.007,313.284 L325.103,312.7 L325.418,311.314 L325.656,310.263 L326.074,308.404 L326.58,306.25 L326.96,305.216 L327.985,301.785 L328.352,300.913 L328.531,300.253 L328.875,299.437 L329.149,298.784 L329.378,298.238"/>
<path d="M324.245,333.843 L324.378,333.304 L324.465,332.307 L324.858,330.423 L325.714,326.317 L326.134,324.71 L326.506,322.953 L326.988,320.679 L327.349,319.482 L327.686,317.377 L328.856,310.687"/>
<path d="M329.633,324.338 L329.523,323.641 L329.386,322.33 L329.297,320.848 L329.248,320.028 L329.445,319.29 L329.765,318.091 L330.546,316.693 L331.043,315.954 L332.346,314.014 L333.542,312.259 L334.224,311.264 L334.584,310.74 L335.61,309.243 L336.043,308.578 L336.854,307.331 L337.739,305.972 L338.195,305.271 L338.916,304.163 L339.378,303.5 L339.898,302.79 L340.228,302.247 L340.547,301.711 L341.886,299.746 L342.474,298.903 L343.059,298.063 L343.633,297.239 L344.366,296.188 L344.707,295.678 L345.573,294.235 L346.422,292.821 L346.806,292.18 L347.189,291.543 L348.424,289.485 L349.135,288.586 L349.763,287.807 L350.389,287.031 L350.963,286.319 L351.666,285.406"/>
<path d="M331.223,294.25 L332.043,292.871 L332.823,291.505 L333.175,290.882 L334.164,288.818 L334.558,288.237"/>
<path d="M334.705,293.018 L334.494,293.567 L334.441,294.31 L334.404,294.821 L334.331,295.856 L334.069,296.485 L333.697,297.329 L333.151,298.564"/>
<path d="M335.814,286.062 L335.835,285.449 L336.068,284.946 L336.793,284.013 L337.206,283.227 L337.765,282.425 L339.124,280.475"/>
<path d="M336.831,366.48 L337.347,366.463 L337.99,366.368 L338.662,366.268 L339.255,366.179 L339.798,366.098 L340.432,366.043 L341.137,366.027 L341.742,366.013 L342.439,365.997 L342.964,366.008"/>
<path d="M341.592,295.546 L340.944,295.773 L339.999,296.104 L339.286,296.018 L338.727,295.937 L338.108,295.847 L337.48,295.761 L337.599,296.307"/>
<path d="M336.12,299.113 L335.458,298.746"/>
<path d="M339.175,303.778 L339.227,303.244 L339.567,301.586 L339.71,300.909 L340.101,299.89 L340.399,299.062 L340.937,297.529 L341.637,295.533 L341.94,294.673 L342.168,294.021 L343.038,291.543 L343.604,289.931 L344.31,287.974 L344.537,287.346 L344.999,286.066 L345.346,285.305 L346.202,283.421 L346.456,282.868 L347.237,281.169 L347.794,279.96 L348.234,279.002 L348.613,278.243 L349.352,277.134 L350.208,275.849 L350.613,275.272 L351.15,274.522 L351.544,273.972 L352.244,273.413 L352.804,273.007 L353.401,272.573 L354.162,272.021 L355.105,271.337"/>
<path d="M340.943,279.157 L341.073,278.169 L342.548,276.805 L343.383,276.014 L344.27,275.343 L346.01,274.096 L348.087,272.635 L349.183,272.124 L350.043,271.722 L352.672,270.585 L353.799,270.102"/>
<path d="M341.952,294.567 L342.11,293.249 L343.24,290.664 L343.613,289.905"/>
<path d="M345.491,293.384 L345.781,292.432 L346.724,290.146 L347.427,288.716 L348.335,286.985 L349.613,284.786 L349.996,284.126 L350.571,283.486 L351.043,282.829 L351.964,281.882 L352.877,280.944 L353.373,280.435 L354.395,279.594 L354.915,279.169"/>
<path d="M345.377,285.071 L345.813,283.87 L346.152,283.304"/>
<path d="M350.391,287.027 L351.576,285.1 L352.051,284.327 L352.373,283.719"/>
<path d="M355.197,277.757 L354.647,277.553 L354.147,277.179 L354.113,276.673 L354.516,275.903"/>
<path d="M354.194,275.888 L354.8,275.488"/>
<path d="M355.149,274.845 L355.328,274.102 L356.113,273.481 L356.978,273.462 L357.498,273.31"/>
<path d="M355.344,278.684 L356.256,278.113"/>
<path d="M356.668,273.956 L357.206,273.682 L357.857,273.744 L358.477,273.806 L359.411,273.9 L360.55,274.015"/>
<path d="M355.344,278.684 L353.444,280.281"/>
<path d="M361.207,264.84 L363.133,264.042"/>
<path d="M362.346,264.498 L363.266,264.015 L363.981,263.641 L365.04,263.484 L367.027,262.691 L368.688,261.948"/>
<path d="M363.766,272.613 L363.471,273.146"/>
<path d="M364.538,273.815 L365.369,273.407"/>
<path d="M365.624,263.549 L366.268,263.153 L368.059,262.434 L368.691,261.948 L370.216,261.183 L371.683,260.627 L373.179,260.172 L374.646,260.005"/>
<path d="M368.102,272.668 L367.482,272.665 L366.905,272.659 L366.248,272.652 L365.373,272.642 L364.711,272.635"/>
<path d="M374.98,272.731 L375.511,272.844 L376.064,273.045 L376.674,273.298 L377.048,273.822 L377.601,274.596 L378.181,274.873"/>
<path d="M478.319,355.544 L476.544,355.532 L472.706,355.583 L471.759,355.623 L466.259,355.619 L464.494,355.587 L463.173,355.658 L460.373,355.713 L457.389,355.794 L454.187,355.817 L449.558,355.864 L448.747,355.85 L444.666,355.715 L442.433,355.727 L439.071,355.624 L436.569,355.885 L429.769,355.892 L428.608,355.903 L423.797,355.776 L421.947,355.864 L419.702,355.834 L415.606,355.839 L413.287,355.759 L411.881,355.778 L407.895,355.56 L405.665,355.509 L403.746,355.305 L402.607,355.152 L400.193,354.525 L399.488,354.392 L396.984,353.72 L396.07,353.449 L394.237,352.905 L393.442,352.7 L390.5,352.162 L388.877,351.674 L385.363,351.167 L383.272,350.891 L381.048,350.444 L377.034,349.78 L376.11,349.622 L375.028,349.26 L372.976,348.574 L371.501,348.099 L369.664,347.385 L368.901,346.868 L366.215,345.068"/>
<path d="M382.003,260.1 L379.719,256.252 L379.473,255.623 L377.748,252.616 L376.363,249.908 L375.908,249.017"/>
<path d="M379.714,273.729 L379.116,273.26 L378.52,272.792"/>
<path d="M379.526,272.253 L379.413,271.743 L379.996,271.296 L380.513,271.252 L381.174,271.235 L381.936,271.215 L382.38,270.655 L383.039,270.193 L383.89,270.011 L384.672,269.844 L385.364,269.663 L386.04,269.486 L386.674,269.321 L387.625,269.073 L388.659,268.848 L390.156,268.694 L390.69,268.567"/>
<path d="M379.401,272.095 L378.19,272.387"/>
<path d="M379.048,260.233 L381.8,260.122 L382.342,260.207 L383.259,260.004 L383.764,259.919 L386.028,260.084 L387.541,259.814 L388.158,259.645 L391.372,258.767 L391.959,258.679 L392.97,258.528 L395.564,258.088 L397.372,257.975 L399.609,257.794 L400.957,257.892 L403.202,258.053 L403.779,258.095 L404.804,257.963 L407.287,257.705 L407.964,257.635 L408.896,257.538 L410.719,258.207"/>
<path d="M382.003,368.187 L382.578,368.002"/>
<path d="M383.749,259.917 L385.145,259.655 L387.704,259.219 L388.954,259.006 L389.69,258.88 L392.21,258.431 L393.445,258.211 L400.751,257.17 L403.943,256.715 L404.556,256.681 L405.722,256.615 L407.507,256.519 L417.493,255.987 L420.495,255.827"/>
<path d="M384.467,267.027 L385.012,266.554 L385.513,266.343 L386.025,266.276 L386.543,266.135 L387.498,266.056 L388.015,265.825 L388.799,265.476 L389.445,265.232 L389.975,265.093 L390.928,264.843 L391.653,264.653 L392.612,264.448 L393.235,264.331 L395.866,263.795 L396.873,263.596 L398.063,263.365 L398.845,263.213 L400.371,262.916 L401.014,262.828 L401.683,262.741 L402.195,262.675 L403.293,262.533 L405.641,262.23 L407.444,262.017 L408.514,261.891 L409.638,261.81 L410.768,261.728 L412.754,261.584 L413.697,261.516 L414.88,261.431 L416.457,261.325 L418.176,261.21 L418.765,261.206 L419.467,261.204 L421.543,261.197 L422.822,261.193 L423.563,261.191 L424.75,261.187"/>
<path d="M386.574,197.294 L386.299,193.279 L386.234,192.337"/>
<path d="M382.364,260.029 L387.616,258.986 L388.94,258.723 L389.678,258.605"/>
<path d="M385.145,259.655 L387.65,259.075 L389.323,258.688 L391.598,258.161 L392.681,257.968 L394.633,257.648 L398.882,257.01 L400.488,256.678 L401.049,256.628 L404.624,256.306 L406.744,256.086 L407.812,255.98 L413.124,255.457 L416.414,255.214 L419.611,254.936 L423.932,254.638 L424.59,254.647 L427.476,254.371"/>
<path d="M379.902,192.149 L386.294,193.21"/>
<path d="M395.93,235.061 L395.482,234.067 L394.651,232.525 L394.354,231.928 L393.442,230.3"/>
<path d="M399.831,269.85 L399.104,269.298 L398.521,268.854"/>
<path d="M397.503,268.49 L398.194,268.894 L398.923,269.32 L399.831,269.85 L400.351,270.222"/>
<path d="M399.904,269.893 L400.176,269.175"/>
<path d="M400.317,269.032 L401.146,269.088 L401.91,268.674"/>
<path d="M400.607,256.668 L399.784,253.798 L399.564,252.831 L397.484,243.05 L397.147,241.466 L397.245,240.466"/>
<path d="M404.07,269.358 L403.446,269.427 L401.999,269.587 L401.478,269.645"/>
<path d="M405.322,269.889 L405.904,269.809"/>
<path d="M404.959,256.271 L406.398,254.812 L406.945,254.515 L408.193,254.477"/>
<path d="M407.07,271.358 L408.048,271.455 L408.915,271.542 L410.745,271.705 L411.283,271.771 L412.375,271.822"/>
<path d="M412.754,261.584 L410.517,261.465 L409.976,261.505 L409.341,261.633"/>
<path d="M412.245,258.086 L413.593,257.189 L414.425,257.111 L415.869,256.923 L420.637,256.437"/>
<path d="M417.019,198.265 L419.593,198.796"/>
<path d="M425.389,366.939 L425.904,366.838 L427.025,366.844 L429.963,366.349 L431.769,366.36 L434.255,366.299 L437.063,366.726 L437.91,366.939 L440.884,366.376 L441.852,366.388 L445.829,366.481 L447.143,366.474 L450.494,366.392 L452.576,366.832 L453.555,366.434 L456.605,366.61 L458.66,366.59 L462.76,366.471 L463.353,366.506 L464.354,366.466 L467.518,366.974"/>
<path d="M426.755,254.882 L427.476,254.371 L428.52,253.632 L429.26,253.513 L430.213,253.473 L431.845,253.762 L432.345,253.314 L433.1,252.645 L436.301,252.071 L436.872,252.092 L438.463,252.421 L439.161,253.008 L440.101,252.768 L440.658,253.077 L441.671,253.658 L442.219,253.276 L442.757,253.272 L443.472,253.413"/>
<path d="M426.719,261.18 L427.499,261.178 L428.303,261.175 L429.021,261.173 L430.64,261.167"/>
<path d="M439.672,269.31 L441.111,269.121 L441.865,269.035 L442.542,268.958 L443.811,268.852 L444.36,268.806 L445.867,268.679"/>
<path d="M441.1,253.258 L441.895,253.142 L443.469,252.88 L451.989,251.822 L455.02,251.109 L456.747,250.868 L458.53,250.816 L459.57,250.798 L460.652,250.759"/>
<path d="M443.646,253.744 L444.163,253.345 L444.781,253.624 L445.887,253.644 L446.389,254.103 L447.195,254.518 L448.483,255.417 L449.239,256.037 L449.799,256.852 L450.176,257.399 L450.608,258.026 L450.828,259.091"/>
<path d="M444.133,265.468 L444.059,264.96 L444.188,264.446 L444.449,263.905 L444.968,263.413 L445.644,263.177 L447.416,263.211 L448.798,263.358 L449.335,263.486 L450.035,263.616 L451.416,264.074"/>
<path d="M446.227,253.835 L447.34,253.914 L449.228,254.611 L450.014,254.902"/>
<path d="M445.885,172.926 L447.377,173.393"/>
<path d="M447.408,254.755 L450.014,254.902 L451.441,254.984 L452.109,255.156 L452.683,255.304 L454.723,256.031 L455.225,256.215 L456.049,256.881 L456.562,257.296 L457.554,258.098"/>
<path d="M448.371,201.361 L448.008,198.878 L447.78,197.773 L447.661,197.234 L447.364,195.882"/>
<path d="M447.986,173.793 L448.885,173.892 L450.768,174.83 L454.49,176.579 L456.661,177.657 L457.97,178.266 L460.184,179.522"/>
<path d="M455.714,266.881 L454.778,266.44 L454.166,266.112"/>
<path d="M456.127,256.945 L456.296,255.502 L456.747,254.626 L457.317,253.519 L457.71,252.988 L459.067,251.711 L459.609,251.416 L460.278,251.052"/>
<path d="M461.542,264.178 L462.091,263.772 L462.62,263.966 L463.716,264.366 L464.237,264.556 L464.794,264.76"/>
<path d="M463.191,188.085 L464.381,186.817 L465.469,186.785 L466.4,186.885 L468.429,187.543 L469.088,187.641 L476.261,190.471 L476.919,190.731 L477.637,191.319 L478.7,191.677 L480.154,192.166 L480.888,192.412 L483.249,193.259 L484.641,193.762 L488.829,195.231 L490.202,195.842 L492.479,196.853 L493.167,197.196"/>
<path d="M469.957,278.148 L469.44,277.803 L468.984,277.298 L468.279,276.458 L467.825,275.918 L467.363,275.368 L466.61,274.686 L465.626,273.795 L464.898,273.051 L464.277,272.329 L463.768,271.738 L463.124,271.083"/>
<path d="M464.365,253.189 L465.343,253.096 L466.221,253.182 L467.123,252.965 L468.078,252.736 L468.629,252.669 L469.395,252.838 L473.831,254.049 L475.875,254.613 L476.696,254.84 L478.583,255.317 L479.598,255.865 L480.435,256.159 L481.028,256.513 L481.924,257.047 L483.268,257.674 L483.832,258.068 L484.53,258.677 L485.046,259.127 L485.564,259.58 L486.403,260.311 L487.076,260.898 L487.66,261.408"/>
<path d="M466.678,262.672 L467.625,262.765 L469.32,263.2"/>
<path d="M463.716,252.825 L465.698,252.751 L467.671,252.678 L468.411,252.645 L470.137,252.569 L472.055,252.639 L472.686,252.663 L473.4,252.539 L473.946,252.444 L474.594,252.45 L476.11,252.462 L479.367,252.403 L481.505,252.37 L482.591,252.458 L483.244,252.512 L485.396,252.368 L485.987,252.303 L486.614,252.243 L487.286,252.206 L489.341,252.266 L490.531,252.314 L492.432,252.336 L495.707,252.272 L497.512,252.304 L499.468,252.275 L501.673,252.436 L504.24,252.197 L504.867,252.22 L507.808,252.675 L509.843,252.521 L513.711,252.557 L518.172,252.352 L518.7,252.389 L519.218,252.366 L526.883,252.496 L527.503,252.548 L532.004,252.613 L533.143,252.709 L535.625,252.771 L539.306,252.957 L540.6,252.98 L545.599,253.044 L548.517,253.106 L550.306,253.271 L553.131,253.513 L553.687,253.56 L554.976,253.509 L556.205,253.459 L556.844,253.434 L557.384,253.477 L557.897,253.479 L558.538,253.551 L559.063,253.638 L559.96,253.787 L561.863,253.812 L562.553,253.822 L564.543,253.967 L566.204,254.088 L566.816,254.133 L567.646,254.194 L569.261,254.071 L570.997,254.077 L573.246,254.323 L577.205,254.496 L578.094,254.588 L581.355,254.643 L585.173,254.947 L586.468,255.045 L592.558,255.4 L593.076,255.439 L594.354,255.505 L600.056,256.201 L601.036,256.147 L604.967,256.361 L606.33,256.633 L607.9,256.695 L614.226,257.214 L615.09,257.325 L616.597,257.385 L620.549,257.891 L622.205,258.05 L625.058,258.435 L627.114,258.645 L628.774,259.011 L632.004,259.229 L634.268,259.584 L635.3,259.71 L635.956,259.782 L637.86,259.991 L640.684,260.477 L641.949,260.687 L643.86,260.997 L644.76,261.143 L646.005,261.345 L646.886,261.56 L651.551,262.979 L653.313,263.428 L657.142,264.978 L660.086,266.214 L662.423,267.255 L663.915,267.965"/>
<path d="M490.752,368.187 L490.15,367.98 L489.534,367.768 L488.679,367.473 L488.093,367.265 L487.234,366.929 L486.587,366.676 L485.135,366.108 L483.576,365.202 L482.797,364.399 L481.191,361.802 L480.032,360.249 L479.043,358.823 L478.617,357.635 L478.618,356.716 L478.367,356.002 L478.115,353.616 L478.068,353.071 L478.012,352.41 L477.931,351.471 L478.02,350.349 L477.833,348.798 L477.921,346.692 L478.131,345.399 L477.882,342.05 L477.974,339.777 L477.568,336.896 L477.558,335.314 L477.216,332.95 L477.112,331.399 L476.868,327.139 L476.15,322.919 L476.067,322.392 L476.181,320.269 L475.611,318.32 L474.97,314.839 L474.548,311.727 L474.368,309.502 L474.362,308.824 L474.343,306.755 L473.357,300.915 L473.242,300.017 L472.953,298.583 L472.802,296.508 L472.551,295.375 L472.148,292.495 L471.758,289.7 L471.725,288.086 L471.494,286.687 L471.252,285.219 L471.279,284.418 L470.956,283.835 L470.675,282.485 L470.584,281.936 L470.283,280.116 L469.957,278.148 L469.957,277.401 L469.786,276.86 L469.564,276.308 L469.32,275.702 L469.131,275.018 L469.033,274.414 L468.911,273.661 L468.812,273.05 L468.65,272.361 L468.482,271.672 L468.332,271.056 L468.195,270.291 L467.913,269.619 L467.673,269.047 L467.406,268.277"/>
<path d="M468.253,367.073 L468.813,366.987 L471.654,366.55 L472.16,366.622 L473.227,366.619 L475.984,366.542 L476.842,366.594 L477.413,366.604 L481.299,366.671 L481.845,366.442 L484.604,366.563"/>
<path d="M470.16,259.611 L469.537,259.05 L468.79,258.2"/>
<path d="M474.157,254.139 L475.629,254.072 L476.471,254.068 L477.503,254.068 L478.113,254.068 L482.611,254.068 L483.16,254.068 L483.991,254.068 L484.971,254.068 L486.056,254.068 L486.582,254.062 L487.254,254.008 L488.107,253.939 L488.712,253.933 L490.38,253.917 L500.38,253.824 L504.74,253.715 L513.031,253.496 L514.708,253.535 L519.608,253.376 L520.665,253.362 L529.673,253.168 L532.564,253.173 L533.172,253.174 L543.167,253.476 L545.122,253.517 L550.299,254.094 L553.107,254.34 L554.548,254.466 L555.354,254.537 L557.961,254.916 L558.901,255.06 L559.824,255.201 L560.705,255.337 L561.857,255.513 L562.477,255.647 L562.699,256.587"/>
<path d="M474.594,252.45 L476.129,252.335 L478.407,251.969 L480.051,251.704 L480.776,251.588 L481.704,251.439 L483.384,251.169 L484.489,251.074 L485.044,250.976 L486.185,250.728 L489.608,250.357 L490.732,250.146 L491.975,249.912 L492.963,249.758 L495.112,249.745 L497.433,249.665 L498.942,249.707 L501.263,249.623 L502.591,249.792 L505.609,250.107 L509.323,250.235 L510.082,250.231 L513.614,250.826 L515.734,251.161 L519.667,250.933 L520.268,250.949 L528.687,251.497 L531.07,251.614 L536.1,251.764 L540.9,252.071 L544.915,252.233 L547.789,252.234 L548.729,252.369 L551.242,252.303 L553.769,252.538 L554.65,252.621 L555.441,252.694 L556.585,252.682 L557.537,252.672 L558.357,252.664 L559.462,252.652 L561.25,252.633 L561.882,252.626 L564.566,252.598 L565.211,252.591 L567.228,252.651 L567.993,252.664 L570.314,252.705 L574.981,253.007 L575.761,252.993 L578.549,253.048 L580.274,253.172 L581.225,253.198 L591.208,253.781 L591.791,253.815 L596.941,254.077 L597.999,254.186 L599.131,254.285 L606.199,254.935 L608.156,255.099 L614.977,255.768 L615.788,255.869 L621.905,256.652 L623.189,256.804 L631.505,258.068 L632.336,258.228 L632.86,258.334 L633.926,258.574 L635.356,258.896 L636.62,259.181 L642.117,260.527 L643.011,260.746 L643.857,260.993"/>
<path d="M478.002,191.442 L479.357,190.709 L480.483,190.137 L481.835,189.47 L482.778,189.006 L483.903,188.452 L484.95,187.738 L489.574,185.328"/>
<path d="M480.051,251.704 L480.649,250.975 L481.325,250.539 L482.533,249.757"/>
<path d="M483.185,248.898 L482.63,248.084"/>
<path d="M473.337,185.358 L474.679,185.877"/>
<path d="M485.578,368.187 L484.496,367.919 L483.985,368.074 L484.403,367.416 L485.171,367.283"/>
<path d="M488.862,368.187 L488.219,367.886 L487.714,367.595 L486.035,367.824 L485.256,367.39 L484.604,366.563 L483.733,365.457"/>
<path d="M486.088,265.16 L486.57,264.639 L487.481,264.445 L488.022,264.681 L490.397,265.462 L491.698,265.88"/>
<path d="M487.744,367.878 L487.216,368.062 L486.512,368.187"/>
<path d="M491.148,274.064 L490.714,273.448 L489.95,273.314 L489.401,272.833 L488.682,272.213 L488.154,271.909 L487.575,271.371"/>
<path d="M488.363,334.872 L489.065,340.499 L489.126,342.353 L489.269,343.625 L489.199,344.635 L489.488,345.551 L489.76,348.659 L490.232,350.911 L490.138,352.005 L490.225,352.708 L490.37,353.942"/>
<path d="M490.042,368.187 L489.511,368.086"/>
<path d="M491.793,265.874 L491.243,265.496 L490.484,264.973"/>
<path d="M484.901,366.939 L483.213,366.957"/>
<path d="M492.36,354.528 L492.3,353.785 L492.527,352.861 L492.718,352.085 L492.924,351.476 L493.703,349.175 L495.231,345.643 L495.402,344.964 L495.791,344.184 L496.347,343.071 L496.643,342.375 L496.955,341.617"/>
<path d="M493.288,275.52 L491.871,274.856"/>
<path d="M493.391,258.686 L495.152,258.137 L496.257,257.995 L497.935,257.794 L499.902,257.359 L501.066,257.396 L502.341,257.484 L503.208,257.83 L503.809,258.07 L504.315,258.272 L505.004,258.547 L505.682,258.841 L506.303,259.139 L507.192,259.492"/>
<path d="M496.281,197.749 L496.871,197.825 L499.47,197.864 L501.797,197.899 L502.641,198.112 L505.534,198.537 L507.111,198.381 L507.846,198.196 L509.139,198.414 L510.659,198.661 L511.536,198.634 L512.717,198.598 L514.105,198.722 L514.659,198.648 L515.52,198.744 L516.104,198.945 L516.84,199.329 L517.414,199.594 L518.887,199.693 L519.93,199.854 L520.472,199.608 L521.41,199.214 L522.466,199.03 L523.02,199.076 L523.696,199.03 L525.964,199.557 L527.775,199.616 L529.793,198.812 L530.53,198.684 L532.057,198.832 L532.557,198.755 L533.375,198.786 L534.407,199.048 L535.598,199.211 L539.712,200.34 L542.541,200.246 L544.368,200.09 L548.596,200.127 L549.879,200.3 L552.851,200.702 L554.719,200.193 L555.752,199.912 L556.81,199.552 L559.83,199.02 L560.745,198.883 L561.333,198.805"/>
<path d="M496.998,191.425 L497.656,191.438 L498.484,191.887 L501.612,192.818 L502.848,193.223 L503.491,193.455 L504.537,192.995 L505.832,192.191 L507.227,192.831 L508.993,193.599 L511.271,193.496 L512.573,192.769 L513.504,192.798 L514.085,192.948 L514.991,192.551 L518.074,192.429 L519.019,192.433 L523.199,193.447 L523.712,193.499 L524.516,193.579 L526.983,193.726 L528.988,193.399 L530.187,193.612 L532.549,193.302 L533.164,193.317 L533.892,193.357 L534.664,193.399"/>
<path d="M497.944,299.964 L497.948,299.193 L498.086,297.333 L498.006,293.869 L498.098,291.848 L498.146,290.975 L498.093,288.06 L498.155,287.344 L498.586,282.885"/>
<path d="M499.489,306.686 L499.55,308.824 L499.592,310.284 L499.725,310.906 L500.01,314.107 L500.272,317.258 L500.149,318.629 L500.255,319.353 L500.592,321.641 L501.241,326.049 L501.34,326.95 L501.259,330.464 L501.712,333.016 L501.816,333.604 L501.831,334.844 L501.83,335.475 L501.405,339.785 L501.342,340.431 L499.766,347.607 L499.614,348.362 L499.231,350.259 L498.519,352.927 L498.475,353.482 L498.582,354.113 L498.803,355.021 L498.657,355.553 L498.43,356.203"/>
<path d="M504.12,306.686 L503.836,305.499 L503.748,304.874 L503.182,300.846 L503.002,298.808 L502.037,293.616 L501.781,292.344 L501.264,288.398 L500.998,287.111 L500.727,285.797 L500.501,283.34 L499.725,279.102 L499.466,278.438 L499.173,277.46 L498.985,276.734 L498.824,276.11 L498.584,275.183 L498.407,274.362 L498.063,273.84 L497.714,273.311"/>
<path d="M499.614,348.362 L499.807,351.38"/>
<path d="M499.743,357.098 L498.919,356.082 L498.729,355.291"/>
<path d="M501.712,333.016 L502.264,331.954 L502.68,330.788 L503.341,328.838 L504.266,326.407 L504.604,325.473 L505.088,324.118 L505.565,322.979"/>
<path d="M512.952,354.977 L512.651,354.274 L512.214,353.042 L511.226,350.261 L509.492,346.049 L508.557,341.725 L507.165,333.04 L507.08,332.495 L506.861,331.04 L506.238,326.906 L505.984,325.351 L505.828,324.686 L505.502,323.301 L505.186,320.775 L505.212,318.072 L504.923,316.339 L504.528,312.426 L504.188,309.147 L504.12,306.686"/>
<path d="M505.949,364.483 L506.556,364.141 L507.656,363.998 L508.918,363.834 L509.935,363.811 L510.461,363.799 L512.605,363.764 L513.216,363.806 L513.724,363.901 L514.27,364.004 L514.94,363.924 L515.493,363.829 L516.059,363.724 L516.589,363.649 L517.272,363.603 L517.943,363.558 L518.803,363.5 L519.363,363.462 L520.063,363.415 L520.749,363.369 L521.31,363.332 L521.935,363.26 L522.56,363.18 L523.138,363.106 L523.745,363.236 L524.62,363.456 L525.187,363.599 L525.693,363.726 L526.427,363.911 L526.934,364.038"/>
<path d="M510.162,367.266 L509.534,367.801 L508.95,368.051 L508.446,368.187"/>
<path d="M510.832,274.962 L510.719,274.337 L510.571,273.521 L510.471,272.967 L510.328,272.176 L510.38,271.054 L510.458,270.506 L510.571,269.622"/>
<path d="M512.719,287.533 L512.616,287.021 L512.441,286.15 L511.876,282.495 L511.388,277.799 L511.173,276.716"/>
<path d="M510.678,260.132 L512.468,260.277 L511.433,260.728"/>
<path d="M514.225,363.567 L513.796,363.012"/>
<path d="M514.789,362.828 L515.296,362.721 L515.956,362.582"/>
<path d="M515.675,358.61 L516.519,357.914 L517.97,358.655 L518.844,359.085 L520.305,360.231"/>
<path d="M519.096,363.039 L518.374,362.721 L517.146,361.95 L517.154,362.605 L517.738,362.935 L518.245,363.472"/>
<path d="M517.96,363.152 L518.741,362.695"/>
<path d="M518.733,323.431 L517.337,313.529 L516.99,311.066 L516.906,310.377 L516.825,309.845"/>
<path d="M518.992,331.532 L518.975,330.218 L518.819,329.601 L518.74,328.254"/>
<path d="M518.484,331.146 L518.808,329.426"/>
<path d="M522.56,363.18 L522.099,362.669 L521.583,362.381 L520.663,362.411 L520.124,362.174 L519.301,361.887"/>
<path d="M521.07,363.142 L521.229,362.519"/>
<path d="M521.524,361.677 L522.205,360.91 L522.844,360.326 L523.995,359.079 L525.279,359.403 L525.44,360.078 L526.56,361.441 L526.03,361.721 L526.131,362.323 L525.937,362.897"/>
<path d="M522.099,362.669 L521.315,363.328"/>
<path d="M522.655,362.323 L523.231,362.294"/>
<path d="M522.879,361.68 L522.55,362.191"/>
<path d="M523.051,361.415 L524.029,361.601 L525.263,362.451 L525.916,362.902 L526.444,363.484"/>
<path d="M530.376,367.296 L529.874,367.136 L529.368,366.97 L528.811,366.658 L528.303,366.362 L527.735,366.069 L527.225,365.769 L526.568,365.412 L525.988,365.404 L525.443,365.413 L525.294,366.011 L525.921,366.16 L526.437,366.258 L526.965,366.472 L527.537,366.868 L528.042,366.875 L528.737,367.158 L529.261,367.4 L529.872,367.294 L530.384,367.313 L530.934,367.335 L531.472,367.367 L532.005,367.449 L532.69,367.484 L533.221,367.58 L533.748,367.707 L534.28,367.748 L534.792,367.77 L535.354,367.759 L535.886,367.973 L536.424,367.979 L537.053,367.859 L537.58,367.835 L538.344,367.867 L538.943,367.896 L539.487,367.842 L540.009,367.918 L540.568,367.952 L541.068,367.967 L541.574,368.168"/>
<path d="M525.428,365.415 L526.008,365.23"/>
<path d="M526.149,362.432 L526.651,362.983 L525.987,362.886"/>
<path d="M526.904,368.187 L526.659,367.565"/>
<path d="M528.641,364.709 L528.13,364.729 L527.608,364.776"/>
<path d="M526.444,363.487 L527.273,363.151 L528.126,363.258 L528.951,363.414"/>
<path d="M527.242,366.53 L527.892,366.293"/>
<path d="M523.712,193.499 L527.934,191.609 L528.957,191.256 L534.45,189.427"/>
<path d="M528.578,364.867 L527.879,364.912 L527.233,364.854"/>
<path d="M527.912,365.013 L528.422,365.126"/>
<path d="M528.437,365.296 L528.614,364.776"/>
<path d="M534.047,366.562 L533.533,366.227 L533.023,366.263 L532.416,366.323 L531.903,366.333 L531.391,366.027 L530.932,365.483 L530.534,364.974 L529.906,364.989 L529.266,364.711"/>
<path d="M529.452,365.244 L529.952,365.334 L530.643,365.699 L531.169,365.995"/>
<path d="M529.683,364.841 L529.378,365.373"/>
<path d="M530.411,363.93 L531.063,363.823 L531.921,363.986 L532.767,364.426 L533.438,364.672 L534.189,364.654"/>
<path d="M534.36,364.277 L533.784,364.225 L533.175,363.866 L532.423,363.868 L531.827,363.502 L532.087,364.066"/>
<path d="M532.254,365.688 L532.754,365.714 L533.383,365.841"/>
<path d="M534.471,365.098 L533.881,365.446 L533.029,365.508 L532.529,365.465 L531.909,365.271"/>
<path d="M532.812,362.358 L532.831,361.443 L530.734,360.878"/>
<path d="M534.145,365.499 L534.387,366.029"/>
<path d="M535.803,364.518 L536.326,364.925"/>
<path d="M538.253,365.787 L537.751,365.444 L537.09,364.505 L536.506,364.543 L535.987,364.45"/>
<path d="M535.902,366.429 L536.505,366.075 L537.183,365.787 L537.824,366.039"/>
<path d="M536.053,188.894 L537.623,188.348 L544.488,185.636 L546.466,184.613 L547.112,184.378 L548.884,183.665 L549.404,183.457 L550.56,182.962 L552.8,182.074 L553.914,181.669 L558.835,179.618 L560.681,178.871 L567.519,176.243 L572.546,173.967 L573.536,173.606 L575.58,172.701 L577.53,171.798 L578.235,171.43"/>
<path d="M535.895,363.437 L536.704,363.86 L537.981,364.2 L538.515,364.704 L538.954,365.204 L539.454,365.581 L540.106,365.976 L540.607,366.284 L540.762,366.806"/>
<path d="M536.967,366.669 L537.516,366.261 L538.18,365.987 L538.775,365.886 L538.812,366.386"/>
<path d="M536.958,365.102 L537.51,365.592"/>
<path d="M538.823,364.937 L539.67,365.113 L540.201,365.094 L541.016,365.146 L541.611,365.163 L542.143,365.179 L542.804,365.316 L543.319,365.764 L543.628,366.284 L543.958,366.838 L544.248,367.394"/>
<path d="M538.689,366.603 L539.249,366.628"/>
<path d="M540.065,366.943 L540.652,366.913 L541.216,366.859"/>
<path d="M540.203,367.198 L540.738,367.005 L541.317,367.035 L541.409,367.562"/>
<path d="M543.612,367.193 L543.232,366.67 L542.512,366.402 L541.9,366.174 L541.364,366.136 L540.837,366.082 L540.173,365.892"/>
<path d="M540.921,366.629 L541.421,366.276"/>
<path d="M541.797,364.828 L542.313,365.118"/>
<path d="M526.72,261.251 L536.035,261.161 L541.862,261.105 L544.452,261.175"/>
<path d="M541.559,366.976 L542.076,366.885 L542.46,367.431 L543.18,367.185 L543.821,367.339 L544.325,367.572 L544.842,367.701 L544.309,367.992 L543.78,368.129"/>
<path d="M542.47,366.703 L542.753,367.347"/>
<path d="M542.664,367.146 L543.301,367.191"/>
<path d="M545.434,366.577 L544.637,366.438 L544.451,365.794"/>
<path d="M544.447,367.363 L545.098,367.514"/>
<path d="M544.548,366.393 L544.031,366.26"/>
<path d="M544.781,367.578 L545.314,367.737 L545.833,368.187"/>
<path d="M545.006,365.393 L545.871,365.604"/>
<path d="M548.765,367.119 L547.991,367.564 L547.42,367.628 L546.756,367.815 L546.236,367.859"/>
<path d="M546.882,367.93 L547.502,367.808 L548.149,367.902"/>
<path d="M562.467,275.873 L558.75,276.067 L558.103,276.088 L552.465,275.317 L550.062,275.514 L548.255,275.662 L545.962,275.729 L545.331,275.748 L544.682,275.767 L543.83,275.792 L542.556,275.755 L541.992,275.731"/>
<path d="M549.298,367.933 L550.056,368.003 L550.889,368.015"/>
<path d="M550.596,367.495 L549.558,367.525"/>
<path d="M550.358,366.047 L551.193,365.485 L551.762,365.094 L552.455,365.261 L552.536,365.895 L552.403,366.433"/>
<path d="M549.651,365.264 L550.677,365.609 L551.193,365.485"/>
<path d="M551.381,368.187 L551.968,367.928"/>
<path d="M551.697,365.94 L550.629,366.017 L551.565,366.187"/>
<path d="M552.364,368.187 L551.539,367.615"/>
<path d="M552.539,365.726 L553.055,365.818 L553.65,366.275 L553.917,366.925 L553.511,367.739"/>
<path d="M553.819,366.518 L557.312,366.639 L559.143,366.677 L562.688,366.869 L565.644,366.732 L566.647,366.851 L568.323,367.238 L572.903,367.451 L575.892,367.335 L579.434,367.741 L580.137,367.857 L583.229,366.924"/>
<path d="M550.72,191.297 L557.767,187.753 L558.671,187.323 L561.687,185.708"/>
<path d="M553.796,367.237 L558.968,367.374"/>
<path d="M558.935,247.464 L560.182,249.613"/>
<path d="M566.968,256.088 L569.584,255.779 L574.861,255.806 L580.434,255.82 L580.947,255.845 L583.925,256.317 L588.144,256.111 L589.346,256.142 L590.876,256.166 L593.068,256.641 L596.525,256.418 L600.149,256.659 L604.9,256.947 L608.666,257.228 L610.402,257.573 L611.888,257.619 L613.947,258.133 L615.602,258.098 L619.438,258.441 L620.843,258.738 L626.218,259.489 L628.312,259.523 L631.518,259.795 L632.322,259.901 L633.363,260.096 L634.35,260.281 L635.085,260.419 L635.948,260.58 L639.072,260.945 L644.404,262.167 L644.938,262.289 L645.445,262.406 L648.046,263.089 L649.287,263.43 L650.988,263.884 L657.474,266.033 L662.23,267.695 L662.794,267.892 L664.462,268.534"/>
<path d="M574.896,367.863 L574.255,367.873"/>
<path d="M576.711,200.459 L577.877,200.578 L579.012,200.694 L579.415,201.531"/>
<path d="M579.207,204.177 L579.58,203.081 L579.76,202.551"/>
<path d="M581.742,367.539 L580.315,367.844"/>
<path d="M585.966,365.843 L585.178,366.892 L584.308,367.458 L582.76,368.187"/>
<path d="M582.67,199.581 L584.712,199.803 L586.676,200.078 L589.281,199.961 L590.958,200.135 L592.99,200.332 L593.681,200.58 L596.625,200.817 L598.14,200.551 L598.81,200.609 L599.569,200.901 L600.474,201.095 L601.248,201.099 L603.075,200.763 L604.976,200.912 L606.116,201.15 L607.699,201.622 L609.699,201.972 L611.523,201.382 L612.995,201.356 L614.156,201.738"/>
<path d="M585.89,365.85 L585.527,366.424"/>
<path d="M584.96,190.615 L588.753,192.078 L589.428,192.376 L590.209,192.613"/>
<path d="M588.665,366.889 L588.411,366.26"/>
<path d="M589.53,192.371 L584.96,190.615 L582.441,189.648"/>
<path d="M590.092,364.735 L589.507,364.616"/>
<path d="M590.209,192.613 L595.528,194.552"/>
<path d="M598.981,196.774 L599.398,197.401"/>
<path d="M600.574,354.891 L601.19,355.012"/>
<path d="M601.091,196.928 L599.627,196.973"/>
<path d="M603.942,263.413 L606.028,263.379 L611.022,263.345 L614.09,263.325 L615.162,263.317 L616.179,263.31 L616.846,263.306 L617.961,263.298 L620.108,263.379 L623.815,263.518 L625.031,263.564 L628.31,263.719 L628.887,263.747 L630.807,264.059 L632.247,264.387 L634.952,264.778 L635.566,264.916 L636.271,265.078 L637.147,265.28 L637.951,265.465 L638.699,265.637 L641.636,266.087 L642.795,266.389"/>
<path d="M601.091,196.928 L607.292,196.336"/>
<path d="M610.241,362.803 L607.378,362.185"/>
<path d="M611.156,367.12 L610.763,366.385 L610.446,365.723"/>
<path d="M612.769,368.187 L612.181,367.871"/>
<path d="M618.866,364.905 L621.053,365.193 L623.843,365.704 L624.629,366.162"/>
<path d="M624.577,366.176 L623.645,365.934"/>
<path d="M627.152,367.979 L626.516,368.187"/>
<path d="M626.198,270.858 L625.66,270.658 L622.936,270.432"/>
<path d="M630.707,368.187 L629.757,367.973 L629.04,367.82"/>
<path d="M631.601,201.376 L632.139,201.183 L635.206,199.828 L636.662,199.314 L637.261,199.096"/>
<path d="M631.389,364.594 L632.411,364.231 L633.549,364.076 L635.121,364.01"/>
<path d="M646.41,223.933 L645.888,225.642 L644.636,229.823 L643.893,231.975 L642.677,234.97 L641.271,238.031 L639.419,241.636 L638.771,243.102 L637.37,245.848 L635.72,248.858 L634.402,251.058 L633.83,250.889 L633.018,251.889"/>
<path d="M632.81,253.362 L634.639,255.674 L635.288,256.98 L635.767,258.989"/>
<path d="M634.899,279.177 L634.141,279.207 L633.604,279.237 L632.559,279.453 L628.102,279.538 L626.552,279.726 L621.468,280.378 L619.763,280.473 L618.091,280.679 L612.795,280.988 L610.523,281.015 L608.117,281.224 L606.154,281.021 L603.698,281.422 L601.54,281.324 L599.286,281.524 L598.349,281.646 L596.55,281.843 L595.888,281.728 L595.364,281.894 L592.396,282.191 L591.15,282.299 L587.775,282.594 L587.074,282.72 L584.591,282.76 L582.748,282.934 L579.987,283.386 L575.667,283.733 L574.367,283.752 L570.098,283.794 L567.629,284.182 L565.14,284.46 L563.396,284.539 L562.049,284.661 L559.122,284.611 L551.583,285.006 L550.87,285.035 L543.387,285.063"/>
<path d="M634.337,260.171 L635.126,260.216 L635.926,260.263 L637.042,260.327 L640.085,260.82 L642.736,261.292 L643.307,261.438 L644.479,261.738 L646.292,262.202 L647.498,262.244 L649.694,262.87 L651.693,263.439 L654.499,264.352 L659.758,266.24 L663.626,267.847 L665.004,268.406 L665.543,268.667"/>
<path d="M637.951,265.465 L639.256,265.369 L640.014,265.408 L641.572,265.357 L643.197,265.433 L646.716,265.6 L648.495,265.684 L651.364,265.976 L653.49,266.364 L657.527,266.91 L660.12,267.895 L661.163,268.356 L662.437,269.322 L662.752,270.1"/>
<path d="M642.636,365.702 L643.17,365.568 L645.669,366.081 L647.468,366.942 L648.051,367.221 L649.177,367.76"/>
<path d="M642.585,257.166 L643.724,258.494 L644.191,259.207 L644.45,259.747 L644.615,260.473 L644.76,261.143"/>
<path d="M647.538,367.955 L646.362,367.958 L645.803,368.009 L645.303,368.187"/>
<path d="M669.646,368.345 L669.055,368.357 L667.316,368.365 L666.603,368.368 L665.141,368.371 L662.115,368.374 L659.453,368.362 L655.613,368.357 L652.976,368.337 L651.175,368.323 L649.94,368.3 L648.355,368.27 L647.733,368.106 L646.705,367.311"/>
<path d="M649.94,368.3 L649.94,368.813 L649.94,369.331"/>
<path d="M649.646,367.772 L650.387,367.133 L651.112,367.143 L651.897,367.153 L654.109,367.182 L655.944,367.194 L657.055,367.32 L658.123,367.405 L659.836,367.541 L660.894,367.625 L661.952,367.392"/>
<path d="M650.931,208.818 L650.44,210.153 L649.742,212.512 L647.863,219.174"/>
<path d="M650.836,209.078 L653.365,202.136"/>
<path d="M660.455,270.139 L660.6,270.835"/>
<path d="M662.604,272.612 L663.338,272.578 L663.95,272.545 L664.466,272.518 L665.527,272.461 L666.073,272.579 L666.761,272.747"/>
<path d="M661.404,268.489 L662.703,268.491 L663.494,268.493 L664.5,268.554 L665.345,268.645 L665.982,268.714 L666.872,268.962 L666.576,269.658 L666.264,270.194 L665.532,270.938 L665.192,271.647 L664.537,272.445"/>
<path d="M665.183,367.914 L664.347,367.916"/>
<path d="M665.132,271.72 L665.696,271.716 L666.295,271.049 L666.756,270.535 L667.281,270.041 L668.458,269.042 L669.722,268.441 L671.67,267.663 L672.916,268.205"/>
<path d="M666.101,271.265 L665.455,271.452"/>
<path d="M665.452,270.986 L666.295,271.049"/>
<path d="M669.947,286.372 L670.035,287.296 L670.256,288.132 L669.354,288.273 L667.958,288.248 L666.897,288.23 L666.302,288.219 L665.696,288.217 L665.1,288.22 L664.057,288.226 L662.074,288.073 L661.128,288.045 L657.247,287.911 L652.533,287.784 L648.512,287.626 L647.94,287.618 L644.542,287.574 L643.134,287.635 L641.474,287.523 L639.652,287.561 L637.418,287.451 L635.838,287.487 L633.047,287.373 L630.957,287.482 L629.719,287.393 L628.304,287.472 L624.087,287.167 L621.44,287.344 L615.658,287.102 L614.295,287.174 L612.62,287.007 L610.824,287.258 L607.28,287.158 L603.359,287.32 L599.292,287.184 L595.681,287.294 L589.73,287.114 L588.002,287.227 L582.792,287.442 L579.075,287.346 L576.297,287.533 L574.083,287.594 L571.03,287.638 L568.621,287.491 L565.546,287.361 L563.608,287.358 L561.909,287.316 L559.058,287.497 L557.731,287.426 L555.851,287.573 L551.822,287.249 L549.566,287.497 L544.523,287.509 L543.947,287.42"/>
<path d="M664.965,275.777 L665.623,275.95"/>
<path d="M666.311,275.408 L665.431,275.271"/>
<path d="M674.512,277.812 L672.69,277.601 L672.07,277.457 L671.222,277.368 L670.505,277.292 L669.952,277.234 L669.388,277.155 L668.768,276.949 L668.255,276.744 L667.679,276.479 L666.958,276.148 L666.455,275.522"/>
<path d="M666.631,272.18 L667.589,271.263 L668.567,270.739 L669.573,270.544 L671.454,270.359 L672.493,270.257 L673.402,270.322"/>
<path d="M666.353,276.119 L665.797,275.979 L664.951,275.766"/>
<path d="M670.505,283.942 L671.198,285.153"/>
<path d="M670.604,285.29 L670.874,286.564 L671.348,287.087 L672.078,287.894 L674.097,291.979 L674.436,292.74"/>
<path d="M671.378,282.624 L671.761,283.341 L672.196,284.222 L672.665,285.493 L673.956,288.459"/>
<path d="M669.829,277.259 L670.452,277.848 L671.05,278.413"/>
<path d="M670.431,365.308 L669.758,365.708"/>
<path d="M671.698,282.748 L672.624,284.747 L673.459,286.43 L674.48,289.115 L675.927,292.739"/>
<path d="M670.681,283.32 L671.735,285.226 L672.137,285.87"/>
<path d="M672.496,282.686 L671.698,282.748"/>
<path d="M670.387,284.053 L671.198,285.153 L672.502,286.923 L673.554,288.48 L675.515,292.125 L676.079,293.172 L676.589,294.121 L676.911,294.755 L677.143,295.376 L677.921,297.874 L678.474,299.652"/>
<path d="M672.598,270.264 L673.542,270.007 L674.688,269.923 L675.619,269.872 L676.578,269.918 L677.143,270.108 L680.25,271.371 L681.709,272.01 L682.941,272.494 L683.441,272.685 L682.912,273.453 L682.699,274.701 L682.532,275.33 L681.583,276.223 L680.027,276.704 L678.005,276.942 L677.211,276.98"/>
<path d="M672.193,285.951 L673.72,288.166 L674.23,288.799 L675.703,292.238 L675.947,292.796 L676.258,293.505"/>
<path d="M674.293,279.058 L674.663,280.158 L674.724,281.503 L674.12,281.662 L673.57,281.753"/>
<path d="M674.203,283.12 L675.735,285.294 L676.244,286.438 L676.715,287.498"/>
<path d="M675.517,365.39 L675.82,364.863 L677.749,364.127 L678.337,363.861"/>
<path d="M678.201,366.892 L677.669,367.409 L677.016,367.74 L676.098,368.205 L675.532,368.231 L674.966,368.236"/>
<path d="M678.122,298.196 L678.57,299.308 L679.177,301.295 L679.337,302.09"/>
<path d="M678.005,276.942 L679.084,277.788 L682.217,280.585 L682.73,281.374 L683.591,282.118 L686.178,285.29"/>
<path d="M680.223,366.698 L679.66,366.937 L679.146,366.801"/>
<path d="M679.788,363.516 L680.422,362.927 L681.105,362.717 L681.769,362.558 L682.548,362.371 L683.387,362.838"/>
<path d="M677.211,276.98 L680.484,279.677 L681.635,280.67 L682.539,281.541 L686.061,285.228 L686.818,285.926 L692.817,292.108 L693.475,292.889 L695.184,294.945 L697.019,296.486 L697.655,297.292"/>
<path d="M680.725,294.501 L682.721,297.481 L682.952,298.07 L683.369,299.167 L685.728,305.383 L686.073,306.636 L687.161,311.542 L687.927,316.009 L688.266,318.551 L689.438,325.955 L689.691,326.692 L690.115,328.629 L691.622,336.305 L691.587,336.905"/>
<path d="M683.387,362.838 L682.796,362.486"/>
<path d="M684.636,366.476 L687.36,367.192 L688.295,367.563 L690.373,367.622"/>
<path d="M691.446,337.847 L691.921,338.784 L692.187,339.437 L692.323,340.14"/>
<path d="M692.756,303.52 L692.239,303.044"/>
<path d="M693.066,366.678 L694.355,366.544 L696.292,366.741 L697.441,366.712 L698.481,366.686 L702.06,366.642 L705.546,366.604 L707.604,366.419"/>
<path d="M686.556,367.899 L687.408,367.859"/>
<path d="M694.916,348.666 L695.449,350.017 L695.898,351.276 L696.628,354.216 L696.966,355.773"/>
</g>
</svg>