<svg viewBox="0 0 960 540" xmlns="http://www.w3.org/2000/svg">
<g fill="none" stroke="#000" stroke-width="0.5">
<path d="M656.041,233.488 L654.414,237.251 L650.658,244.763 L647.511,250.056 L643.731,255.606 L643.636,255.06"/>
<path d="M607.939,196.261 L617.585,194.643 L619.962,193.916"/>
<path d="M656.307,188.583 L641.211,189.574"/>
<path d="M598.38,195.298 L592.418,193.576"/>
<path d="M657.346,230.781 L659.803,223.759 L662.756,213.04 L666.079,198.609 L667.888,188.793"/>
<path d="M554.25,181.529 L548.873,181.569 L548.967,183.632"/>
<path d="M610.72,195.939 L607.292,196.336"/>
<path d="M658.412,188.621 L661.955,188.425 L667.88,188.79"/>
<path d="M660.456,221.389 L659.088,225.802"/>
<path d="M548.884,183.665 L548.783,181.518 L550.828,181.555"/>
<path d="M579.514,188.395 L589.33,192.293"/>
<path d="M689.418,306.425 L683.369,299.167"/>
<path d="M696.163,298.902 L695.819,299.714 L690.131,304.855"/>
<path d="M692.807,303.567 L691.838,304.374"/>
<path d="M676.715,287.498 L681.856,294.641 L685.488,301.501 L689.914,303.003 L696.977,298.367 L697.757,297.232"/>
<path d="M695.819,299.714 L697.397,298.571 L697.373,299.335 L693.373,304.09 L694.284,303.649 L698.559,299.197"/>
<path d="M690.425,302.667 L694.587,299.936"/>
<path d="M688.412,305.117 L686.073,306.636"/>
<path d="M541.793,189.961 L547.666,190.615 L560.758,193.552 L567.656,195.375 L585.21,200.204 L590.809,202.591 L595.234,203.457"/>
<path d="M630.175,201.678 L626.618,202.014"/>
<path d="M626.082,201.93 L625.634,201.751"/>
<path d="M618.309,201.986 L618.309,201.986"/>
<path d="M534.516,188.687 L534.705,193.841 L535.897,199.293"/>
<path d="M654.426,199.225 L654.23,193.481"/>
<path d="M534.837,194.442 L534.406,188.606"/>
<path d="M650.84,209.066 L647.243,221.491 L646.41,223.933"/>
<path d="M486.121,354.292 L487.658,353.275 L489.078,353.834"/>
<path d="M516.825,309.845 L516.245,306.686"/>
<path d="M441.329,256.89 L441.329,256.89"/>
<path d="M442.459,259.719 L442.785,259.721"/>
<path d="M335.458,298.746 L334.989,294.165"/>
<path d="M551.706,367.636 L548.889,367.019"/>
<path d="M340.149,291.801 L339.897,291.761"/>
<path d="M379.902,192.149 L375.882,191.396 L363.261,189.759 L363.451,195.507 L365.602,209.69 L367.877,222.628 L369.372,229.102"/>
<path d="M417.019,198.265 L414.423,197.53 L406.879,196.658"/>
<path d="M367.242,219.041 L364.26,202.083 L364.064,199.754"/>
<path d="M372.685,241.354 L371.838,239.286 L368.68,226.106"/>
<path d="M419.843,198.804 L427.693,198.789 L444.015,197.507"/>
<path d="M396.685,194.944 L407.086,196.693 L414.021,197.49"/>
<path d="M370.611,234.265 L372.885,242.003 L375.367,248.021"/>
<path d="M433.931,198.494 L424.434,198.954 L418.8,198.77"/>
<path d="M446.376,197.181 L440.704,197.965"/>
<path d="M363.285,190.481 L363.222,189.734 L368.21,190.401"/>
<path d="M445.871,172.92 L443.808,172.356 L444.786,182.321 L446.943,193.921 L447.608,197.016"/>
<path d="M579.451,188.885 L578.226,198.27"/>
<path d="M444.654,180.974 L444.346,179.245 L443.763,172.262 L445.833,172.91"/>
<path d="M578.199,198.262 L579.934,185.155 L580.908,172.239 L579.707,170.557"/>
<path d="M579.73,170.454 L580.951,172.134 L580.653,175.623"/>
<path d="M479.876,243.319 L479.94,245.949"/>
<path d="M390.397,222.024 L387.914,208.759 L386.96,202.861"/>
<path d="M402.381,222.501 L402.67,223.569 L403.429,222.656 L403.094,221.453 L402.381,222.501"/>
<path d="M496.447,196.498 L496.988,192.419 L497.069,184.544"/>
<path d="M387.097,204.184 L386.953,202.82"/>
<path d="M550.76,369.339 L594.659,369.448 L619.508,369.546 L635.058,369.488 L649.179,369.339"/>
<path d="M649.94,369.331 L659.826,369.199 L669.352,368.743"/>
<path d="M342.964,366.008 L344.513,366.006"/>
<path d="M678.337,363.861 L682.029,363.542"/>
<path d="M661.952,367.392 L665.133,367.487 L670.179,366.626 L677.408,364.808"/>
<path d="M635.121,364.01 L642.312,365.078 L657.588,365.405 L655.433,365.701 L652.107,365.692 L643.003,365.167 L640.33,364.76"/>
<path d="M640.283,366.795 L642.026,365.855"/>
<path d="M376.231,363.006 L379.106,366.002"/>
<path d="M594.809,360.092 L594.716,360.073"/>
<path d="M681.545,360.724 L683.542,361.799 L684.17,363.384 L684.329,365.404"/>
<path d="M668.685,366.089 L672.071,363.618"/>
<path d="M715.445,366.252 L716.38,365.621 L720.051,365.366"/>
<path d="M620.003,367.098 L622.84,367.396 L624.577,366.176 L631.389,364.594"/>
<path d="M618.624,355.044 L613.05,355.558 L606.767,355.418 L602.051,355.148 L596.002,354.09 L592.603,353.176"/>
<path d="M362.269,363.617 L362.269,363.617"/>
<path d="M381.759,366.963 L381.759,366.963"/>
<path d="M611.054,366.637 L612.033,367.78 L613.995,368.171 L624.282,367.785 L627.714,367.795"/>
<path d="M592.305,367.098 L600.223,365.647 L602.88,364.719 L607.378,362.185 L610.241,362.802 L610.994,366.356"/>
<path d="M654.306,367.863 L648.547,367.809 L642.636,365.702 L639.467,367.33 L636.502,367.965 L625.245,367.747 L623.103,367.816"/>
<path d="M602.142,365.034 L601.067,365.492 L591.239,367.293 L591.135,366.067 L588.96,364.639 L580.33,368.106 L567.203,367.595 L553.792,367.244"/>
<path d="M582.132,367.383 L589.457,364.572 L591.16,366.013"/>
<path d="M654.046,367.864 L667.267,367.909"/>
<path d="M482.643,366.961 L459.505,367.118 L440.629,367.365 L419.961,368.069"/>
<path d="M416.437,368.187 L439.215,367.385 L458.58,367.127"/>
<path d="M560.59,367.415 L568.178,367.562 L580.33,368.106"/>
<path d="M667.772,367.908 L680.177,366.702 L683.971,367.402 L690.377,368.244 L694.188,368.285 L703.078,368.04 L721.922,367.12"/>
<path d="M339.207,367.946 L327.892,367.372 L321.265,367.184 L304.219,367.072 L298.682,366.775"/>
<path d="M300.108,366.852 L305.144,367.045 L315.21,367.14"/>
<path d="M461.311,367.109 L484.913,366.956"/>
<path d="M323.46,367.244 L326.434,367.281 L339.632,367.969 L348.96,368.177"/>
<path d="M722.553,366.263 L722.043,367.067 L713.215,367.567"/>
<path d="M686.56,368.386 L692.604,368.378"/>
<path d="M627.753,367.795 L636.208,368.012 L638.804,367.592 L642.026,365.855"/>
<path d="M679.657,366.605 L666.927,367.984 L660.668,367.924"/>
<path d="M642.283,365.79 L648.62,367.768 L653.667,367.857"/>
<path d="M605.362,363.334 L602.88,364.719"/>
<path d="M702.398,368.059 L687.517,368.08 L680.201,366.707"/>
<path d="M614.211,368.105 L611.216,367.21"/>
<path d="M677.016,367.74 L683.6,368.372 L686.348,368.385"/>
<path d="M348.295,368.162 L340.146,367.99"/>
<path d="M709.698,368.379 L711.84,368.363"/>
<path d="M569.745,228.748 L567.04,232.983 L557.9,242.902"/>
<path d="M462.795,187.915 L464.121,195.496 L466.6,205.403 L467.093,206.643"/>
<path d="M570.506,227.561 L571.848,225.088 L572.928,221.57 L576.779,210.534 L578.686,205.707"/>
<path d="M475.788,228.858 L479.568,240.782"/>
<path d="M577.802,207.911 L575.254,214.765"/>
<path d="M480.071,242.553 L476.978,232.317 L474.26,224.419 L467.268,207.289 L467.093,206.643"/>
<path d="M470.351,214.824 L472.711,220.455 L475.534,228.048"/>
<path d="M464.703,197.825 L464.122,195.679 L462.728,187.892"/>
<path d="M579.76,202.551 L578.686,205.707"/>
<path d="M378.045,272.423 L376.394,272.581 L372.676,272.054 L369.806,272.345"/>
<path d="M544.452,261.175 L547.225,261.241 L560.902,261.98 L570.977,262.346"/>
<path d="M646.639,267.937 L653.963,268.107 L658.919,268.69 L660.125,269.831"/>
<path d="M669.634,283.458 L670.586,284.946 L669.294,285.081 L669.588,283.328"/>
<path d="M374.646,260.005 L384.421,260.511 L387.733,260.852"/>
<path d="M670.431,278.039 L672.064,279.89"/>
<path d="M409.693,273.043 L407.93,272.366 L406.449,270.492 L404.663,269.598"/>
<path d="M425.552,272.557 L420.145,273.313 L418.078,271.881"/>
<path d="M255.62,369.339 L255.62,368.187"/>
<path d="M276.474,369.339 L633.702,369.339"/>
<path d="M276.474,369.339 L255.428,369.339"/>
<path d="M647.701,369.339 L650.132,369.339"/>
<path d="M647.701,369.339 L633.702,369.339"/>
<path d="M530.488,368.187 L385.151,368.187"/>
<path d="M648.04,368.187 L530.77,368.187"/>
<path d="M341.136,368.187 L299.521,368.187"/>
<path d="M385.151,368.187 L341.632,368.187"/>
<path d="M640.59,252.519 L642.199,255.41 L640.21,253.651"/>
<path d="M628.557,191.184 L630.745,190.807"/>
<path d="M553.487,199.819 L554.94,198.873 L557.279,199.469"/>
<path d="M579.618,203.081 L588.798,203.151 L592.946,203.603 L595.738,203.485 L598.69,204.119 L601.191,203.12 L603.286,203.722 L610.438,203.186"/>
<path d="M608.954,203.297 L615.137,201.465 L620.424,200.714 L623.437,201.442 L625.26,201.34 L624.581,200.821 L627.804,200.88 L630.761,198.331 L633.809,196.515 L640.867,193.732 L648.42,193.344 L653.11,193.51"/>
<path d="M622.379,202.413 L630.753,201.359"/>
<path d="M625.388,239.36 L626.785,240.934 L631.045,247.83"/>
<path d="M546.519,196.744 L550.176,197.456"/>
<path d="M517.612,330.128 L518.992,331.532 L520.358,334.071 L523.593,342.237 L523.516,349.999 L522.979,351.418 L523.583,354.23 L526.311,357.651 L528.874,359.694"/>
<path d="M526.38,358.728 L532.795,361.427 L530.47,360.648 L533.925,363.368"/>
<path d="M532.867,362.992 L534.464,363.544"/>
<path d="M521.559,361.794 L524.654,363.006"/>
<path d="M519.022,362.186 L520.288,362.866"/>
<path d="M517.275,363.586 L515.593,362.125 L514.454,362.474 L515.656,363.759"/>
<path d="M488.928,353.248 L495.414,355.682 L498.017,356.358 L502.609,358.326 L509.393,360.837 L512.31,362.212"/>
<path d="M527.199,364.017 L526.658,364.15"/>
<path d="M526.482,364.28 L529.936,363.591 L532.288,365.747 L534.731,366.289"/>
<path d="M526.295,364.944 L528.644,365.365 L531.378,366.698 L535.252,366.367 L539.25,366.764 L539.115,367.789 L534.187,367.257"/>
<path d="M529.141,368.187 L525.273,367.436"/>
<path d="M478.068,353.071 L473.698,343.266 L469.964,333.273 L463.463,314.464 L458.999,300.656 L456.807,294.272 L455.14,290.9 L452.776,285.335 L451.003,281.65 L446.696,270.894 L446.458,269.606 L445.344,267.855 L445.05,263.94"/>
<path d="M439.717,267.08 L435.733,265.816 L433.736,264.592 L430.952,261.395 L430.363,261.146"/>
<path d="M424.981,261.186 L422.294,257.114"/>
<path d="M355.197,277.757 L353.373,280.435"/>
<path d="M337.707,289.647 L337.795,289.278 L343.814,281.982 L347.721,278.028 L349.649,276.687"/>
<path d="M460.551,250.874 L461.93,251.27 L463.716,252.825 L467.008,254.944 L468.387,256.388"/>
<path d="M460.601,263.355 L461.336,263.89"/>
<path d="M452.919,261.338 L451.828,260.861 L451.835,259.654 L453.6,261.772 L454.846,261.503 L460.088,263.587"/>
<path d="M483.153,256.524 L486.56,256.946 L488.438,258.153 L490.846,258.146 L492.707,258.61"/>
<path d="M511.454,260.745 L519.059,260.086 L524.009,260.019 L525.878,260.564 L532.118,265.651 L535.296,268.88 L534.525,269.5 L539.569,271.524 L541.588,273.267 L543.705,287.31 L544.377,293.928 L546.244,315.744 L547.789,337.458 L549.25,361.136 L549.601,362.929 L549.212,365.115"/>
<path d="M543.419,363.413 L542.426,364.42 L543.542,364.796 L543.502,365.924"/>
<path d="M542.578,365.269 L541.611,365.163"/>
<path d="M490.178,337.739 L490.398,332.523 L490.463,323.745 L490.225,317.759 L490.186,310.185 L490.557,304.216 L490.328,300.359 L490.783,293.333 L491.893,285.321 L492.607,282.559 L492.843,279.385 L493.729,277.76 L493.65,275.691"/>
<path d="M517.567,366.435 L519.366,365.266 L522.158,364.539 L525.052,364.414"/>
<path d="M338.357,305.023 L338.802,303.207"/>
<path d="M450.035,263.616 L447.604,261.933 L444.24,257.919 L445.243,258.465"/>
<path d="M434.149,258.518 L434.868,257.316 L437.281,256.632"/>
<path d="M480.067,255.988 L482.296,256.445"/>
<path d="M482.82,256.712 L484.31,256.824 L487.147,257.952 L490.431,260.204 L493.422,261.613 L496.046,262.139 L500.782,260.581 L508.129,260.083 L508.042,259.76"/>
<path d="M525.263,362.451 L525.295,360.515 L524.614,359.901 L523.116,361.314"/>
<path d="M545.622,366.61 L545.864,365.17 L546.862,365.452"/>
<path d="M547.466,365.277 L549.212,365.115 L549.902,365.827"/>
<path d="M548.828,366.388 L548.451,366.025"/>
<path d="M541.094,362.667 L543.37,363.109 L545.401,364.312 L546.143,363.958 L547.517,365.146 L546.505,366.722"/>
<path d="M419.564,261.177 L420.825,255.81 L425.439,254.996 L430.226,254.667 L432.906,255.574"/>
<path d="M511.672,354.434 L511.837,354.993 L514.265,356.656 L515.116,358.43"/>
<path d="M476.106,259.602 L477.872,260.589"/>
<path d="M481.054,262.32 L482.956,263.125 L484.023,264.328"/>
<path d="M535.434,363.814 L535.438,365.215 L536.7,365.623"/>
<path d="M535.875,366.373 L534.39,364.672 L535.268,362.759 L536.084,364.377 L535.337,364.688"/>
<path d="M545.351,367.382 L547.095,366.532 L549.847,366.147 L552.876,366.951 L553.175,368.092"/>
<path d="M552.577,368.187 L551.32,367.353"/>
<path d="M543.319,365.764 L544.448,366.735"/>
<path d="M544.716,365.666 L545.877,365.994"/>
<path d="M507.355,259.493 L510.35,259.873 L512.174,261.314"/>
<path d="M389.359,258.656 L395.332,253.898"/>
<path d="M377.033,200.752 L382.162,201.904 L387.006,203.582"/>
<path d="M447.608,197.016 L447.431,197.867"/>
<path d="M465.78,182.299 L469.062,183.457 L474.679,185.877 L479.06,187.275 L479.553,187.868 L482.395,188.858"/>
<path d="M473.963,186.695 L475.457,187.553 L481.835,189.47"/>
<path d="M391.554,192.903 L398.197,195.436 L400.365,196.93"/>
<path d="M400.271,196.902 L403.283,197.806 L406.742,199.605 L407.596,200.599 L410.987,200.295 L412.497,201.22 L416.143,201.156 L421.496,201.576 L426.489,202.401 L427.57,201.616 L429.672,201.316 L431.311,201.757 L438.588,201.999 L440.32,201.439 L442.257,202.721 L443.45,202.647 L446.613,201.327 L447.812,201.464 L452.513,200.599 L456.192,200.448 L459.407,199.263 L459.807,198.695 L462.879,197.648 L464.686,197.759"/>
<path d="M464.664,197.679 L464.641,198.163"/>
<path d="M474.306,234.63 L475.111,235.435 L477.915,239.714 L479.875,243.317"/>
<path d="M302.409,365.951 L308.326,366.559 L311.306,366.482 L312.442,366.959 L315.125,366.982"/>
<path d="M322.823,365.939 L327.367,363.758 L328.633,363.494"/>
<path d="M328.633,363.494 L329.903,363.175 L338.526,361.961 L340.324,361.112 L342.369,362.129 L340.846,360.68 L340.324,361.112"/>
<path d="M338.841,361.755 L339.576,360.455 L342.273,358.558 L344.212,358.284 L345.627,357.326 L347.112,355.453 L350.22,354.914 L352.954,354.105 L358.632,354.292"/>
<path d="M344.977,294.911 L347.756,288.853 L351.654,283.289 L354.7,279.511"/>
<path d="M694.432,359.56 L693.93,359.56"/>
<path d="M670.374,286.782 L674.132,292.247 L676.765,296.522 L683.058,310.412 L684.285,312.39 L684.235,315.084 L685.938,320.168 L686.964,325.223 L688.346,327.615 L690.701,334.298 L691.677,337.541 L691.028,338.398 L694.922,343.091 L695.574,345.855 L695.283,347.806 L693.637,352.746 L692.454,355.271 L691.102,361.708 L690.224,363.82"/>
<path d="M693.6,356.778 L695.466,355.766 L698.647,355.957 L701.539,357.553 L703.537,359.332"/>
<path d="M696.427,360.48 L697.836,359.456 L700.354,359.66 L700.677,360.19 L702.624,359.378 L705.767,359.28 L707.938,360.499 L710.105,360.325 L713.48,361.243 L721.908,364.833 L722.625,365.949"/>
<path d="M623.248,366.867 L621.394,366.658"/>
<path d="M592.575,350.217 L588.377,351.474 L583.312,352.029 L581.811,352.539 L561.32,353.074 L557.931,353.328 L554.573,353.271 L548.801,353.908"/>
<path d="M326.091,354.636 L325.937,355.251 L324.141,352.358 L322.736,349.033 L321.587,344.243 L321.246,341.196 L322.054,339.771 L324.437,334.228 L326.317,330.369 L327.216,327.94 L329.633,324.338"/>
<path d="M595.241,365.088 L599.076,364.315 L603.11,362.201 L605.702,361.217 L608.134,361.006 L614.587,363.182 L618.427,364.663 L619.724,366.457"/>
<path d="M637.735,367.724 L637.832,367.702"/>
<path d="M722.566,366.341 L722.082,367.539 L720.572,368.34 L708.067,368.322 L686.56,368.386 L683.438,368.12 L680.323,366.688"/>
<path d="M586.015,362.724 L587.494,362.909 L590.571,363.982 L590.876,364.893"/>
<path d="M358.95,343.505 L360.886,344.966 L361.955,346.458 L362.662,348.712"/>
<path d="M684.209,357.535 L680.347,358.448 L678.222,358.543 L673.93,359.311 L672.339,359.213 L670.63,359.844 L666.68,360.555 L660.9,360.637 L657.388,360.25 L655.079,360.575 L646.704,360.676 L643.166,359.948 L638.165,358.195 L632.637,355.97"/>
<path d="M325.121,368.187 L322.169,368.187"/>
<path d="M343.995,365.482 L349.765,365.278 L354.212,364.724 L356.403,365.261 L360.569,365.821 L369.678,366.408 L369.935,367.83"/>
<path d="M668.709,366.07 L668.606,366.111"/>
<path d="M691.808,367.133 L691.905,366.647 L699.107,366.839 L708.68,366.552 L712.451,366.701 L715.138,365.893"/>
<path d="M626.165,353.083 L622.993,354.554 L618.624,355.044"/>
<path d="M358.956,355.129 L360.539,354.608"/>
<path d="M473.081,194.109 L478.97,194.443 L487.181,195.532 L492.526,197.08 L496.132,197.736"/>
<path d="M550.781,229.245 L550.982,230.408 L552.001,231.054 L556.243,239.263 L558.935,247.464"/>
<path d="M482.123,250.323 L483.071,249.048"/>
<path d="M483.073,249.051 L481.263,251.474 L482.383,250.691 L484.323,246.603 L486.59,244.347 L489.213,242.369 L491.397,241.785 L491.931,239.938 L493.514,238.246"/>
<path d="M664.496,275.592 L663.419,276.418 L661.379,276.358 L656.842,277.145 L653.459,277.451"/>
<path d="M673.256,268.67 L674.688,269.923"/>
<path d="M363.29,272.601 L361.028,272.546"/>
<path d="M362.517,272.61 L360.584,272.872"/>
<path d="M363.448,272.637 L363.692,272.611"/>
<path d="M360.3,273.627 L357.493,273.054 L355.608,271.765 L353.587,269.701 L353.969,267.641 L359.993,265.223 L367.215,263.091 L373.822,261.682 L377.741,261.618 L382.475,261.044 L393.561,260.776 L396.532,260.835 L409.341,261.633"/>
<path d="M383.881,266.8 L384.06,266.773"/>
<path d="M553.099,261.559 L571.553,261.292 L584.673,261.467 L590.649,261.992 L596.408,262.904"/>
<path d="M596.611,262.827 L602.355,263.225 L606.459,263.711 L612.489,263.803 L620.855,263.556 L622.945,264.399"/>
<path d="M659.694,268.086 L659.694,268.086"/>
<path d="M662.893,270.445 L662.469,272.829 L660.312,274.947 L654.172,277.252 L648.976,278.604 L640.802,279.681 L635,279.211 L626.905,279.051 L625.941,278.692 L622.776,278.794 L616.946,278.282 L615.506,277.631 L610.125,278.208 L600.738,278.098 L596.058,277.792 L590.785,277.679 L574.792,276.615 L572.486,276.146 L568.034,276.195 L565.726,275.702 L563.807,275.803"/>
<path d="M447.502,273.123 L433.741,272.842 L422.231,272.361 L411.496,270.982 L405.127,269.644 L401.441,268.39 L398.575,268.814 L394.762,267.373 L394.203,267.901 L391.109,268.547 L386.478,268.042 L384.058,269.813"/>
<path d="M454.126,288.468 L447.741,289.542 L439.753,290.35 L437.435,290.259 L435.471,290.67 L429.928,291.123 L426.278,291.164 L420.363,291.664 L413.16,291.889 L404.224,291.642 L398.296,290.817 L395.773,290.793 L393.051,290.08 L386.984,289.185 L383.974,285.506 L381.91,281.911 L380.531,278.567 L379.455,272.14"/>
<path d="M674.293,279.058 L673.962,280.251"/>
<path d="M670.882,278.225 L672.135,279.061 L673.24,281.812"/>
<path d="M671.698,280.708 L670.611,283.842"/>
<path d="M669.223,285.147 L670.484,285.106 L669.736,286.735 L670.011,288.175 L668.795,287.506"/>
<path d="M625.807,264.774 L621.436,263.645 L627.025,264.618 L634.079,266.326 L639.376,267.844 L641.75,268.194 L646.639,267.937"/>
<path d="M660.125,269.831 L660.222,269.596"/>
<path d="M673.15,280.848 L673.15,280.848"/>
<path d="M357.587,277.658 L358.557,275.302 L359.707,274.608 L363.201,273.622 L366.223,274.539"/>
<path d="M365.964,273.554 L365.006,272.654"/>
<path d="M666.634,269.798 L667.059,269.92"/>
<path d="M382.669,282.943 L376.903,282.834 L368.255,281.565 L362.664,280.527 L359.854,280.199 L356.57,279.243 L355.903,276.875"/>
<path d="M369.05,273.411 L371.352,274.479 L376.54,277.977 L375.912,278.45 L378.157,279.592"/>
<path d="M398.84,272.598 L400.404,270.997"/>
<path d="M621.923,269.637 L625.432,270.279 L633.354,272.304"/>
<path d="M366.868,270.3 L369.647,268.519 L377.674,265.817 L388.366,263.164 L389.148,263.346"/>
<path d="M368.537,275.222 L368.092,275.12"/>
<path d="M299.11,366.798 L300.666,365.92 L301.425,366.232"/>
<path d="M300.001,366.159 L304.404,363.167 L308.328,360.956 L311.648,359.811 L317.127,358.538"/>
<path d="M313.106,366.293 L320.018,366.328"/>
<path d="M315.551,358.754 L316.165,354.939 L316.998,353.591 L318.015,350.469 L321.356,344.32"/>
<path d="M321.356,344.32 L321.196,340.853 L321.761,334.193 L323.697,317.623 L325.199,306.452 L326.227,301.772 L327.837,296.09 L330.959,287.646 L336.301,278.852 L341.3,274.711 L347.592,270.553 L354.878,267.17 L358.855,265.718"/>
<path d="M322.828,338.115 L323.112,331.358 L323.735,329.976 L323.4,327.601 L323.925,323.978 L324.332,318.905 L325.103,312.7 L326.58,306.25 L327.985,301.785 L329.378,298.238"/>
<path d="M324.245,333.843 L325.714,326.317 L327.349,319.482 L328.856,310.687"/>
<path d="M329.633,324.338 L329.248,320.028 L330.546,316.693 L335.61,309.243 L340.547,301.711 L344.707,295.678 L348.424,289.485 L351.666,285.406"/>
<path d="M331.223,294.25 L334.558,288.237"/>
<path d="M334.705,293.018 L334.331,295.856 L333.151,298.564"/>
<path d="M335.814,286.062 L336.068,284.946 L339.124,280.475"/>
<path d="M336.831,366.48 L342.964,366.008"/>
<path d="M341.592,295.546 L339.999,296.104 L337.48,295.761 L337.599,296.307"/>
<path d="M339.175,303.778 L339.71,300.909 L344.999,286.066 L348.613,278.243 L351.544,273.972 L355.105,271.337"/>
<path d="M340.943,279.157 L341.073,278.169 L343.383,276.014 L348.087,272.635 L353.799,270.102"/>
<path d="M341.952,294.567 L342.11,293.249 L343.613,289.905"/>
<path d="M345.491,293.384 L346.724,290.146 L349.996,284.126 L353.373,280.435 L354.915,279.169"/>
<path d="M345.377,285.071 L346.152,283.304"/>
<path d="M350.391,287.027 L352.373,283.719"/>
<path d="M355.197,277.757 L354.147,277.179 L354.516,275.903"/>
<path d="M355.149,274.845 L356.113,273.481 L357.498,273.31"/>
<path d="M356.668,273.956 L357.206,273.682 L360.55,274.015"/>
<path d="M362.346,264.498 L368.688,261.948"/>
<path d="M365.624,263.549 L370.216,261.183 L374.646,260.005"/>
<path d="M368.102,272.668 L364.711,272.635"/>
<path d="M374.98,272.731 L376.674,273.298 L378.181,274.873"/>
<path d="M478.319,355.544 L466.259,355.619 L449.558,355.864 L439.071,355.624 L436.569,355.885 L428.608,355.903 L411.881,355.778 L405.665,355.509 L402.607,355.152 L393.442,352.7 L388.877,351.674 L383.272,350.891 L376.11,349.622 L369.664,347.385 L366.215,345.068"/>
<path d="M382.003,260.1 L379.719,256.252 L375.908,249.017"/>
<path d="M379.714,273.729 L378.52,272.792"/>
<path d="M379.526,272.253 L379.996,271.296 L381.936,271.215 L383.039,270.193 L388.659,268.848 L390.69,268.567"/>
<path d="M379.048,260.233 L383.764,259.919 L386.028,260.084 L391.372,258.767 L395.564,258.088 L399.609,257.794 L403.779,258.095 L408.896,257.538 L410.719,258.207"/>
<path d="M383.749,259.917 L393.445,258.211 L403.943,256.715 L420.495,255.827"/>
<path d="M384.467,267.027 L391.653,264.653 L400.371,262.916 L408.514,261.891 L418.176,261.21 L424.75,261.187"/>
<path d="M386.574,197.294 L386.234,192.337"/>
<path d="M382.364,260.029 L389.678,258.605"/>
<path d="M385.145,259.655 L391.598,258.161 L400.488,256.678 L413.124,255.457 L427.476,254.371"/>
<path d="M395.93,235.061 L393.442,230.3"/>
<path d="M399.831,269.85 L398.521,268.854"/>
<path d="M397.503,268.49 L400.351,270.222"/>
<path d="M400.317,269.032 L401.91,268.674"/>
<path d="M400.607,256.668 L399.784,253.798 L397.147,241.466 L397.245,240.466"/>
<path d="M404.07,269.358 L401.478,269.645"/>
<path d="M404.959,256.271 L406.398,254.812 L408.193,254.477"/>
<path d="M407.07,271.358 L412.375,271.822"/>
<path d="M412.754,261.584 L409.341,261.633"/>
<path d="M412.245,258.086 L413.593,257.189 L420.637,256.437"/>
<path d="M425.389,366.939 L429.963,366.349 L434.255,366.299 L437.91,366.939 L440.884,366.376 L450.494,366.392 L452.576,366.832 L453.555,366.434 L456.605,366.61 L464.354,366.466 L467.518,366.974"/>
<path d="M426.755,254.882 L428.52,253.632 L431.845,253.762 L433.1,252.645 L436.301,252.071 L440.101,252.768 L441.671,253.658 L443.472,253.413"/>
<path d="M426.719,261.18 L430.64,261.167"/>
<path d="M439.672,269.31 L445.867,268.679"/>
<path d="M441.1,253.258 L451.989,251.822 L456.747,250.868 L460.652,250.759"/>
<path d="M443.646,253.744 L445.887,253.644 L449.239,256.037 L450.608,258.026 L450.828,259.091"/>
<path d="M444.133,265.468 L444.449,263.905 L445.644,263.177 L450.035,263.616 L451.416,264.074"/>
<path d="M446.227,253.835 L450.014,254.902"/>
<path d="M447.408,254.755 L451.441,254.984 L455.225,256.215 L457.554,258.098"/>
<path d="M448.371,201.361 L447.364,195.882"/>
<path d="M447.986,173.793 L448.885,173.892 L457.97,178.266 L460.184,179.522"/>
<path d="M455.714,266.881 L454.166,266.112"/>
<path d="M456.127,256.945 L456.296,255.502 L457.317,253.519 L459.067,251.711 L460.278,251.052"/>
<path d="M461.542,264.178 L462.091,263.772 L464.794,264.76"/>
<path d="M463.191,188.085 L464.381,186.817 L466.4,186.885 L469.088,187.641 L476.919,190.731 L477.637,191.319 L488.829,195.231 L493.167,197.196"/>
<path d="M469.957,278.148 L463.124,271.083"/>
<path d="M464.365,253.189 L468.629,252.669 L478.583,255.317 L483.832,258.068 L487.66,261.408"/>
<path d="M466.678,262.672 L469.32,263.2"/>
<path d="M463.716,252.825 L473.946,252.444 L481.505,252.37 L483.244,252.512 L487.286,252.206 L492.432,252.336 L504.867,252.22 L507.808,252.675 L518.172,252.352 L532.004,252.613 L539.306,252.957 L548.517,253.106 L553.687,253.56 L556.844,253.434 L559.96,253.787 L567.646,254.194 L570.997,254.077 L578.094,254.588 L581.355,254.643 L594.354,255.505 L600.056,256.201 L604.967,256.361 L616.597,257.385 L637.86,259.991 L646.005,261.345 L653.313,263.428 L660.086,266.214 L663.915,267.965"/>
<path d="M490.752,368.187 L485.135,366.108 L482.797,364.399 L479.043,358.823 L478.367,356.002 L477.833,348.798 L478.131,345.399 L477.974,339.777 L477.216,332.95 L476.868,327.139 L476.067,322.392 L476.181,320.269 L474.97,314.839 L474.368,309.502 L474.343,306.755 L472.953,298.583 L471.758,289.7 L471.725,288.086 L469.957,278.148 L468.195,270.291 L467.406,268.277"/>
<path d="M468.253,367.073 L471.654,366.55 L481.299,366.671 L484.604,366.563"/>
<path d="M470.16,259.611 L468.79,258.2"/>
<path d="M474.157,254.139 L486.056,254.068 L488.107,253.939 L500.38,253.824 L513.031,253.496 L529.673,253.168 L533.172,253.174 L545.122,253.517 L555.354,254.537 L562.477,255.647 L562.699,256.587"/>
<path d="M474.594,252.45 L476.129,252.335 L486.185,250.728 L492.963,249.758 L501.263,249.623 L505.609,250.107 L510.082,250.231 L515.734,251.161 L519.667,250.933 L528.687,251.497 L536.1,251.764 L548.729,252.369 L551.242,252.303 L555.441,252.694 L565.211,252.591 L578.549,253.048 L596.941,254.077 L614.977,255.768 L623.189,256.804 L631.505,258.068 L636.62,259.181 L643.857,260.993"/>
<path d="M478.002,191.442 L483.903,188.452 L489.574,185.328"/>
<path d="M480.051,251.704 L482.533,249.757"/>
<path d="M485.578,368.187 L485.171,367.283"/>
<path d="M488.862,368.187 L487.714,367.595 L486.035,367.824 L483.733,365.457"/>
<path d="M486.088,265.16 L487.481,264.445 L491.698,265.88"/>
<path d="M487.744,367.878 L486.512,368.187"/>
<path d="M491.148,274.064 L487.575,271.371"/>
<path d="M488.363,334.872 L489.065,340.499 L489.76,348.659 L490.232,350.911 L490.37,353.942"/>
<path d="M491.793,265.874 L490.484,264.973"/>
<path d="M492.36,354.528 L492.718,352.085 L495.402,344.964 L496.955,341.617"/>
<path d="M493.391,258.686 L495.152,258.137 L499.902,257.359 L502.341,257.484 L507.192,259.492"/>
<path d="M496.281,197.749 L501.797,197.899 L505.534,198.537 L507.846,198.196 L510.659,198.661 L515.52,198.744 L517.414,199.594 L519.93,199.854 L521.41,199.214 L523.696,199.03 L527.775,199.616 L530.53,198.684 L533.375,198.786 L539.712,200.34 L544.368,200.09 L548.596,200.127 L552.851,200.702 L556.81,199.552 L561.333,198.805"/>
<path d="M496.998,191.425 L503.491,193.455 L505.832,192.191 L508.993,193.599 L511.271,193.496 L512.573,192.769 L519.019,192.433 L523.199,193.447 L526.983,193.726 L532.549,193.302 L534.664,193.399"/>
<path d="M497.944,299.964 L498.093,288.06 L498.586,282.885"/>
<path d="M499.489,306.686 L500.272,317.258 L500.149,318.629 L501.34,326.95 L501.259,330.464 L501.816,333.604 L501.342,340.431 L499.231,350.259 L498.519,352.927 L498.803,355.021 L498.43,356.203"/>
<path d="M504.12,306.686 L503.002,298.808 L501.781,292.344 L500.501,283.34 L499.725,279.102 L498.407,274.362 L497.714,273.311"/>
<path d="M499.743,357.098 L498.729,355.291"/>
<path d="M501.712,333.016 L505.565,322.979"/>
<path d="M512.952,354.977 L509.492,346.049 L508.557,341.725 L505.984,325.351 L505.186,320.775 L505.212,318.072 L504.188,309.147 L504.12,306.686"/>
<path d="M505.949,364.483 L508.918,363.834 L512.605,363.764 L514.27,364.004 L516.589,363.649 L523.138,363.106 L526.934,364.038"/>
<path d="M510.162,367.266 L508.446,368.187"/>
<path d="M510.832,274.962 L510.328,272.176 L510.571,269.622"/>
<path d="M512.719,287.533 L511.876,282.495 L511.173,276.716"/>
<path d="M510.678,260.132 L511.433,260.728"/>
<path d="M514.789,362.828 L515.956,362.582"/>
<path d="M515.675,358.61 L516.519,357.914 L520.305,360.231"/>
<path d="M519.096,363.039 L517.146,361.95 L518.245,363.472"/>
<path d="M518.733,323.431 L516.825,309.845"/>
<path d="M518.992,331.532 L518.74,328.254"/>
<path d="M522.56,363.18 L521.583,362.381 L519.301,361.887"/>
<path d="M521.524,361.677 L523.995,359.079 L525.279,359.403 L526.56,361.441 L525.937,362.897"/>
<path d="M523.051,361.415 L524.029,361.601 L526.444,363.484"/>
<path d="M530.376,367.296 L526.568,365.412 L525.294,366.011 L529.261,367.4 L541.068,367.967 L541.574,368.168"/>
<path d="M526.149,362.432 L525.987,362.886"/>
<path d="M528.641,364.709 L527.608,364.776"/>
<path d="M526.444,363.487 L528.951,363.414"/>
<path d="M523.712,193.499 L527.934,191.609 L534.45,189.427"/>
<path d="M528.578,364.867 L527.233,364.854"/>
<path d="M534.047,366.562 L531.903,366.333 L530.534,364.974 L529.266,364.711"/>
<path d="M529.452,365.244 L531.169,365.995"/>
<path d="M530.411,363.93 L534.189,364.654"/>
<path d="M534.36,364.277 L532.087,364.066"/>
<path d="M532.254,365.688 L533.383,365.841"/>
<path d="M534.471,365.098 L531.909,365.271"/>
<path d="M532.812,362.358 L532.831,361.443 L530.734,360.878"/>
<path d="M538.253,365.787 L537.09,364.505 L535.987,364.45"/>
<path d="M535.902,366.429 L537.824,366.039"/>
<path d="M536.053,188.894 L544.488,185.636 L546.466,184.613 L560.681,178.871 L567.519,176.243 L578.235,171.43"/>
<path d="M535.895,363.437 L537.981,364.2 L540.607,366.284 L540.762,366.806"/>
<path d="M536.967,366.669 L538.812,366.386"/>
<path d="M538.823,364.937 L542.143,365.179 L543.319,365.764 L544.248,367.394"/>
<path d="M540.065,366.943 L541.216,366.859"/>
<path d="M540.203,367.198 L541.409,367.562"/>
<path d="M543.612,367.193 L543.232,366.67 L540.173,365.892"/>
<path d="M526.72,261.251 L541.862,261.105 L544.452,261.175"/>
<path d="M541.559,366.976 L544.842,367.701 L543.78,368.129"/>
<path d="M545.434,366.577 L544.451,365.794"/>
<path d="M544.781,367.578 L545.833,368.187"/>
<path d="M548.765,367.119 L546.236,367.859"/>
<path d="M546.882,367.93 L548.149,367.902"/>
<path d="M562.467,275.873 L558.103,276.088 L552.465,275.317 L548.255,275.662 L541.992,275.731"/>
<path d="M549.298,367.933 L550.889,368.015"/>
<path d="M550.358,366.047 L551.762,365.094 L552.403,366.433"/>
<path d="M549.651,365.264 L551.193,365.485"/>
<path d="M551.697,365.94 L551.565,366.187"/>
<path d="M552.539,365.726 L553.65,366.275 L553.511,367.739"/>
<path d="M553.819,366.518 L562.688,366.869 L565.644,366.732 L568.323,367.238 L572.903,367.451 L575.892,367.335 L580.137,367.857 L583.229,366.924"/>
<path d="M550.72,191.297 L561.687,185.708"/>
<path d="M566.968,256.088 L569.584,255.779 L580.434,255.82 L583.925,256.317 L590.876,256.166 L593.068,256.641 L596.525,256.418 L608.666,257.228 L613.947,258.133 L619.438,258.441 L626.218,259.489 L632.322,259.901 L639.072,260.945 L645.445,262.406 L650.988,263.884 L657.474,266.033 L664.462,268.534"/>
<path d="M576.711,200.459 L579.012,200.694 L579.415,201.531"/>
<path d="M579.207,204.177 L579.76,202.551"/>
<path d="M585.966,365.843 L585.178,366.892 L582.76,368.187"/>
<path d="M582.67,199.581 L586.676,200.078 L589.281,199.961 L596.625,200.817 L598.14,200.551 L600.474,201.095 L603.075,200.763 L604.976,200.912 L609.699,201.972 L611.523,201.382 L614.156,201.738"/>
<path d="M584.96,190.615 L590.209,192.613"/>
<path d="M589.53,192.371 L582.441,189.648"/>
<path d="M603.942,263.413 L617.961,263.298 L628.887,263.747 L634.952,264.778 L642.795,266.389"/>
<path d="M611.156,367.12 L610.446,365.723"/>
<path d="M618.866,364.905 L623.843,365.704 L624.629,366.162"/>
<path d="M626.198,270.858 L622.936,270.432"/>
<path d="M630.707,368.187 L629.04,367.82"/>
<path d="M631.601,201.376 L637.261,199.096"/>
<path d="M631.389,364.594 L635.121,364.01"/>
<path d="M646.41,223.933 L644.636,229.823 L642.677,234.97 L637.37,245.848 L634.402,251.058 L633.018,251.889"/>
<path d="M632.81,253.362 L634.639,255.674 L635.767,258.989"/>
<path d="M634.899,279.177 L632.559,279.453 L628.102,279.538 L618.091,280.679 L608.117,281.224 L606.154,281.021 L603.698,281.422 L601.54,281.324 L587.775,282.594 L582.748,282.934 L575.667,283.733 L570.098,283.794 L565.14,284.46 L559.122,284.611 L550.87,285.035 L543.387,285.063"/>
<path d="M634.337,260.171 L637.042,260.327 L647.498,262.244 L654.499,264.352 L659.758,266.24 L665.543,268.667"/>
<path d="M637.951,265.465 L641.572,265.357 L648.495,265.684 L657.527,266.91 L661.163,268.356 L662.752,270.1"/>
<path d="M642.636,365.702 L645.669,366.081 L649.177,367.76"/>
<path d="M642.585,257.166 L644.45,259.747 L644.76,261.143"/>
<path d="M647.538,367.955 L645.303,368.187"/>
<path d="M669.646,368.345 L655.613,368.357 L648.355,368.27 L646.705,367.311"/>
<path d="M649.94,368.3 L649.94,369.331"/>
<path d="M649.646,367.772 L650.387,367.133 L655.944,367.194 L660.894,367.625 L661.952,367.392"/>
<path d="M650.931,208.818 L647.863,219.174"/>
<path d="M662.604,272.612 L665.527,272.461 L666.761,272.747"/>
<path d="M661.404,268.489 L666.872,268.962 L664.537,272.445"/>
<path d="M665.132,271.72 L665.696,271.716 L668.458,269.042 L671.67,267.663 L672.916,268.205"/>
<path d="M669.947,286.372 L670.256,288.132 L669.354,288.273 L648.512,287.626 L639.652,287.561 L633.047,287.373 L628.304,287.472 L624.087,287.167 L621.44,287.344 L612.62,287.007 L610.824,287.258 L595.681,287.294 L589.73,287.114 L582.792,287.442 L579.075,287.346 L571.03,287.638 L561.909,287.316 L555.851,287.573 L551.822,287.249 L549.566,287.497 L543.947,287.42"/>
<path d="M674.512,277.812 L669.388,277.155 L666.958,276.148 L666.455,275.522"/>
<path d="M666.631,272.18 L668.567,270.739 L673.402,270.322"/>
<path d="M666.353,276.119 L664.951,275.766"/>
<path d="M670.604,285.29 L670.874,286.564 L672.078,287.894 L674.436,292.74"/>
<path d="M671.378,282.624 L673.956,288.459"/>
<path d="M669.829,277.259 L671.05,278.413"/>
<path d="M671.698,282.748 L673.459,286.43 L675.927,292.739"/>
<path d="M670.681,283.32 L672.137,285.87"/>
<path d="M670.387,284.053 L673.554,288.48 L677.143,295.376 L678.474,299.652"/>
<path d="M672.598,270.264 L675.619,269.872 L677.143,270.108 L683.441,272.685 L682.532,275.33 L681.583,276.223 L677.211,276.98"/>
<path d="M672.193,285.951 L674.23,288.799 L676.258,293.505"/>
<path d="M674.293,279.058 L674.724,281.503 L673.57,281.753"/>
<path d="M674.203,283.12 L675.735,285.294 L676.715,287.498"/>
<path d="M675.517,365.39 L675.82,364.863 L678.337,363.861"/>
<path d="M678.201,366.892 L676.098,368.205 L674.966,368.236"/>
<path d="M678.122,298.196 L679.337,302.09"/>
<path d="M678.005,276.942 L682.217,280.585 L686.178,285.29"/>
<path d="M680.223,366.698 L679.146,366.801"/>
<path d="M679.788,363.516 L682.548,362.371 L683.387,362.838"/>
<path d="M677.211,276.98 L682.539,281.541 L692.817,292.108 L695.184,294.945 L697.655,297.292"/>
<path d="M680.725,294.501 L682.721,297.481 L685.728,305.383 L687.161,311.542 L689.438,325.955 L690.115,328.629 L691.622,336.305 L691.587,336.905"/>
<path d="M684.636,366.476 L688.295,367.563 L690.373,367.622"/>
<path d="M691.446,337.847 L692.323,340.14"/>
<path d="M693.066,366.678 L696.292,366.741 L705.546,366.604 L707.604,366.419"/>
<path d="M694.916,348.666 L695.898,351.276 L696.966,355.773"/>
</g>
</svg>